<?xml version="1.0" encoding="UTF-8" standalone="no"?>
<!-- Created with Inkscape (http://www.inkscape.org/) -->

<svg
   width="196.31544"
   height="128.89156"
   id="svg2"
   version="1.1"
   xmlns="http://www.w3.org/2000/svg"
   xmlns:svg="http://www.w3.org/2000/svg"
   xmlns:rdf="http://www.w3.org/1999/02/22-rdf-syntax-ns#"
   xmlns:cc="http://creativecommons.org/ns#"
   xmlns:dc="http://purl.org/dc/elements/1.1/">
  <defs
     id="defs4" />
  <metadata
     id="metadata7">
    <rdf:RDF>
      <cc:Work
         rdf:about="">
        <dc:format>image/svg+xml</dc:format>
        <dc:type
           rdf:resource="http://purl.org/dc/dcmitype/StillImage" />
      </cc:Work>
    </rdf:RDF>
  </metadata>
  <g
     id="layer1"
     transform="translate(-145.30809,-321.21933)">
    <rect
       style="fill:#ffffff;fill-opacity:1"
       id="rect3869"
       width="196.31544"
       height="128.89156"
       x="145.30809"
       y="321.21933" />
    <path
       style="fill:none;stroke:#d4d4d4;stroke-width:1.03175px;stroke-linecap:butt;stroke-linejoin:miter;stroke-opacity:1"
       d="m 145.79156,361.22344 0.13159,89.0022"
       id="path3063" />
    <path
       style="fill:none;stroke:#d4d4d4;stroke-width:1.03175px;stroke-linecap:butt;stroke-linejoin:miter;stroke-opacity:1"
       d="m 341.29729,361.14914 0.13159,89.0022"
       id="path3063-1" />
    <path
       style="fill:none;stroke:#d4d4d4;stroke-width:1.09552px;stroke-linecap:butt;stroke-linejoin:miter;stroke-opacity:1"
       d="m 341.04945,449.60048 -194.68101,0.0678"
       id="path3063-1-7" />
    <g
       id="g355"
       style="clip-rule:evenodd;fill-rule:evenodd;stroke-linecap:square;stroke-miterlimit:2"
       transform="matrix(0.21158524,0,0,0.21158524,159.59916,321.93265)">
      <path
         d="m 102.82508,559.82545 c 0.65834,0.36666 1.0125,0.89583 1.06667,1.5875 0.0292,0.42083 -0.1125,0.8125 -0.43333,1.19583 -0.31667,0.375 -0.82084,0.58334 -1.51667,0.6375 -1.325,0.10417 -2.650004,0.29584 -3.991672,0.575 -1.341667,0.28334 -2.708335,0.47917 -4.100003,0.5875 -0.970834,0.0792 -1.970835,0.0333 -2.995836,-0.13333 -1.025,-0.1625 -1.983335,-0.52083 -2.862502,-1.08333 -0.883334,-0.55834 -1.629168,-1.375 -2.237502,-2.44584 -0.608334,-1.06667 -0.983334,-2.50833 -1.125001,-4.31667 -0.195833,-2.49583 0.0875,-5.3 0.858334,-8.4 0.766668,-3.09584 1.762502,-6.18751 2.991669,-9.25418 1.225001,-3.0625 2.558336,-5.91667 3.99167,-8.54167 1.433335,-2.63334 2.725002,-4.72501 3.858337,-6.28334 0.6875,-1.03333 1.658334,-2.06667 2.900002,-3.1125 1.245834,-1.0375 2.566664,-1.6125 3.954174,-1.72084 1.45833,-0.11666 2.74583,0.25417 3.8625,1.10834 1.11667,0.85833 2.075,1.9375 2.875,3.23333 0.8,1.3 1.45417,2.68334 1.95417,4.14167 0.49583,1.47084 0.85833,2.71667 1.075,3.75001 0.4125,1.64166 0.7375,3.32916 0.975,5.05417 0.24167,1.73333 0.43333,3.5 0.57917,5.30417 0.3625,4.65417 0.54583,9.42917 0.55,14.32501 0,4.89167 0.16667,9.48751 0.50833,13.79168 l 0.17917,2.29583 0.10833,1.35 c 0.29167,-0.71667 0.55417,-1.42083 0.775,-2.10417 0.22917,-0.67916 0.52084,-1.38333 0.88334,-2.10833 0.77083,-1.7375 1.55833,-3.725 2.36667,-5.95001 0.8,-2.23333 1.61666,-4.5 2.45,-6.8 0.83333,-2.30417 1.70417,-4.55417 2.6125,-6.76251 0.90833,-2.2 1.85833,-4.175 2.83334,-5.9375 0.98333,-1.75 1.99166,-3.175 3.02083,-4.27084 1.03334,-1.09583 2.10417,-1.6875 3.21667,-1.77083 1.32083,-0.10834 2.32917,0.2625 3.025,1.11666 0.69584,0.85834 1.08334,1.84584 1.175,2.95417 0.0333,0.4125 0.075,0.9375 0.12084,1.55834 0.05,0.62917 0.0125,1.0875 -0.1,1.375 l 0.0708,0.93333 c 0.24167,3.06251 0.42917,5.62917 0.55417,7.71668 0.12916,2.09166 0.21666,3.82917 0.25833,5.225 0.0417,1.39167 0.0708,2.52084 0.10833,3.39584 0.0333,0.87083 0.0792,1.62083 0.125,2.24166 0.11667,1.46667 0.27501,3.02084 0.47501,4.68334 0.2,1.6625 0.53333,3.20834 0.99166,4.64167 0.74584,-2.99167 1.6625,-5.95417 2.7625,-8.86667 1.10001,-2.925 2.12501,-5.84584 3.07917,-8.79168 0.90417,-2.79166 1.83751,-5.82083 2.80001,-9.07917 0.96666,-3.25 1.98333,-6.5375 3.05417,-9.83334 1.0625,-3.29584 2.1375,-6.54167 3.21666,-9.74167 1.07501,-3.19167 2.20417,-6.15834 3.38751,-8.90835 0.35833,-0.73333 0.8875,-1.125 1.58333,-1.18333 0.42084,-0.0292 0.79584,0.1 1.13334,0.38333 0.3375,0.2875 0.52916,0.71667 0.57083,1.27084 0.025,0.34583 0.0167,0.625 -0.0375,0.8375 -1.975,5.12084 -3.73334,10.31251 -5.27917,15.56668 -1.54167,5.25834 -2.99584,10.55001 -4.35834,15.85834 -1.36667,5.31668 -2.73333,10.55835 -4.10417,15.73335 -1.37917,5.18334 -2.85833,10.17501 -4.43333,14.98335 -0.69167,0.95833 -1.45834,1.475 -2.28751,1.5375 -0.425,-0.0375 -1.03333,-0.21667 -1.82916,-0.5375 -0.79167,-0.325 -1.53334,-0.84167 -2.21667,-1.55417 -0.6875,-0.71667 -1.275,-1.75417 -1.76667,-3.10834 -0.49167,-1.3625 -0.9125,-2.92083 -1.2625,-4.675 -0.34584,-1.75417 -0.63334,-3.65417 -0.86667,-5.70001 -0.22917,-2.04166 -0.42083,-4.07083 -0.57917,-6.0875 -0.2,-2.5 -0.35833,-4.95 -0.475,-7.35001 -0.12083,-2.4 -0.25416,-4.54167 -0.4,-6.42083 -1.5625,3.26666 -2.8875,6.45417 -3.96667,9.5375 -1.0875,3.10001 -2.0875,6.11251 -3.0125,9.05001 -0.925,2.9375 -1.84583,5.80417 -2.77917,8.60417 -0.9375,2.80001 -1.99583,5.57501 -3.175,8.32501 -0.58333,1.4375 -1.1,2.46667 -1.54167,3.05834 -0.44167,0.59583 -1.0125,0.9125 -1.70417,0.97083 -1.4625,0.1125 -2.6125,-0.35417 -3.46667,-1.40833 -0.85,-1.05001 -1.52916,-2.33751 -2.0375,-3.87501 -0.5,-1.52917 -0.85833,-3.125 -1.05417,-4.79167 -0.20416,-1.6625 -0.34166,-3.0125 -0.425,-4.05417 -0.15,-1.875 -0.22083,-4.075 -0.20833,-6.5875 0.0125,-2.52084 0.0458,-5.19584 0.10417,-8.02918 0.0583,-2.84167 0.0708,-5.7375 0.05,-8.70834 -0.025,-2.97083 -0.14584,-5.8375 -0.3625,-8.6125 -0.12084,-1.47084 -0.31667,-3.07084 -0.59167,-4.83751 -0.27917,-1.75417 -0.61667,-3.4125 -1.01667,-4.95 -0.40833,-1.54584 -0.90416,-2.82917 -1.50833,-3.86667 -0.6125,-1.03334 -1.2625,-1.52917 -1.95417,-1.47084 -0.77083,0.0583 -1.7,0.625 -2.80417,1.69167 -1.104167,1.06667 -2.258334,2.42917 -3.450002,4.09584 -1.195834,1.66667 -2.362502,3.55834 -3.487503,5.675 -1.129167,2.11667 -2.129168,4.27084 -3.004169,6.47501 -0.875,2.2 -1.558334,4.35417 -2.058335,6.45 -0.495833,2.10001 -0.683334,3.95417 -0.558334,5.55001 0.270834,3.40417 2.000002,4.97917 5.195838,4.72917 1.183334,-0.0958 2.387502,-0.29583 3.620836,-0.6 1.229168,-0.30834 2.370835,-0.5 3.412499,-0.5875 0.41667,-0.0333 0.78334,-0.0583 1.09584,-0.0792 0.3125,-0.025 0.64583,0.0167 1.00833,0.12917 z"
         style="fill:#405c59;fill-rule:nonzero;stroke-width:4.16667"
         id="path64" />
      <path
         d="m 165.19597,534.36709 c 0.3875,0.525 0.60416,1.0375 0.64166,1.51667 0.05,0.625 -0.10416,1.18334 -0.45,1.65834 -0.34583,0.4875 -0.79583,0.75416 -1.35,0.79166 -0.55833,0.0417 -1.08333,-0.17083 -1.575,-0.66666 -0.49167,-0.48334 -0.75417,-0.96667 -0.79167,-1.45417 -0.0458,-0.55833 0.125,-1.05834 0.50834,-1.50834 0.3875,-0.45 0.85416,-0.69166 1.4125,-0.7375 0.62083,-0.0542 1.15833,0.0792 1.60417,0.4 z m -5.28334,19.49169 c 0.75417,-1.10417 1.44167,-1.68334 2.06667,-1.73334 0.76666,-0.0625 1.19583,0.57084 1.30416,1.8875 -0.29166,3.45001 -0.57916,6.65418 -0.87083,9.61251 -0.29167,2.95834 -0.36667,5.33751 -0.225,7.14584 0.15417,1.94583 0.6125,2.925 1.38333,2.92917 0.50417,0.17083 1.06667,0.2375 1.69167,0.1875 1.67084,-0.12917 3.50417,-0.76667 5.51251,-1.90417 2.00833,-1.14167 3.67917,-2.52917 5.02083,-4.17084 0.40417,-0.17083 0.7125,-0.26666 0.92084,-0.28333 0.48333,-0.0375 0.91667,0.10833 1.29167,0.425 0.375,0.31667 0.57916,0.725 0.61666,1.20417 0.0292,0.35 -0.1125,0.78333 -0.42083,1.29583 -3.3125,3.19584 -6.21251,5.46667 -8.69167,6.81668 -2.47917,1.35 -4.62084,2.09166 -6.42501,2.23333 -2.0875,0.17083 -3.64584,-0.39167 -4.69584,-1.675 -1.04166,-1.27917 -1.65,-2.95834 -1.8125,-5.04167 -0.3,-3.825 -0.05,-7.25001 0.7625,-10.28751 0.80834,-3.02917 1.66667,-5.9125 2.57084,-8.64167 z"
         style="fill:#405c59;fill-rule:nonzero;stroke-width:4.16667"
         id="path66" />
      <path
         d="m 177.17931,561.41295 c 0.025,-2.30834 0.1125,-4.56667 0.25417,-6.77917 0.1375,-2.2125 0.36666,-4.45417 0.675,-6.71668 -2.45834,0.75417 -4.20834,1.38334 -5.25418,1.88751 -1.04166,0.5 -1.84166,0.775 -2.39583,0.81666 -0.83333,0.0625 -1.29167,-0.45833 -1.38333,-1.57083 -0.0792,-1.04167 0.51666,-2.08334 1.8,-3.12084 1.27916,-1.05 2.79583,-2.02916 4.54167,-2.93333 1.03333,-1.05417 1.82917,-2.02084 2.39167,-2.86667 0.5625,-0.84584 1.02083,-1.71667 1.36666,-2.62084 0.35,-0.9 0.62084,-1.8875 0.8125,-2.95 0.2,-1.0625 0.45,-2.3375 0.75,-3.83334 0.15834,-0.6375 0.34167,-1.6875 0.54167,-3.13333 0.2,-1.45 0.50417,-2.92084 0.9125,-4.42084 0.40417,-1.5 0.94167,-2.83333 1.62084,-4.00417 0.675,-1.17083 1.57083,-1.80833 2.68333,-1.89167 1.10834,-0.0875 1.70834,0.3875 1.79167,1.43334 0.0417,0.55417 0,1.34583 -0.13333,2.36667 -0.125,1.02083 -0.32084,2.35 -0.575,3.975 -0.25834,1.62917 -0.55417,3.62917 -0.8875,5.99167 -0.3375,2.375 -0.69584,5.18334 -1.07084,8.42501 0.69167,-0.0542 1.35,-0.125 1.97084,-0.20834 0.62916,-0.0875 1.25,-0.15416 1.87916,-0.20416 0.75834,-0.0542 1.67917,-0.12917 2.75834,-0.2125 1.07917,-0.0875 2.125,-0.11667 3.1375,-0.0958 1.0125,0.025 1.88334,0.15 2.60001,0.375 0.71666,0.22084 1.09583,0.64584 1.14583,1.27917 0.05,0.62084 -0.51667,1.19167 -1.7,1.70417 -1.17917,0.5125 -2.575,1.00417 -4.18334,1.475 -1.60417,0.48334 -3.225,0.9375 -4.87084,1.37917 -1.6375,0.45833 -2.9,0.87917 -3.775,1.30417 -0.50417,3.3875 -0.88333,7.00417 -1.14167,10.82917 -0.25416,3.83334 -0.25416,7.41251 0.008,10.75001 0.0333,0.4125 0.0917,0.96667 0.18333,1.65834 0.0917,0.69583 0.17917,1.4 0.275,2.12916 0.0875,0.72917 0.2125,1.34584 0.35417,1.85834 0.14583,0.5125 0.32083,0.7625 0.53333,0.74583 0.7625,-0.0625 2.25417,-1.31667 4.475,-3.75833 2.21667,-2.44584 4.51251,-5.90001 6.88751,-10.35001 0.31667,-0.37084 0.725,-0.57917 1.20833,-0.61667 0.48334,-0.0375 0.91667,0.0833 1.29167,0.37083 0.37084,0.2875 0.57084,0.67084 0.6125,1.15834 0.0292,0.35 -0.1125,0.77917 -0.42083,1.29167 -0.82917,1.94583 -1.8375,3.9875 -3.03334,6.1125 -1.19583,2.11667 -2.4625,4.0375 -3.79167,5.74584 -1.33333,1.70833 -2.69167,3.15 -4.06667,4.30417 -1.37916,1.15833 -2.6875,1.78333 -3.9375,1.87917 -1.18333,0.1 -2.16667,-0.24167 -2.96667,-1.025 -0.79583,-0.77084 -1.4625,-1.73334 -2.00833,-2.87501 -0.54584,-1.14166 -0.95834,-2.37083 -1.23334,-3.68333 -0.28333,-1.3 -0.45833,-2.48334 -0.5375,-3.525 -0.10833,-1.38334 -0.16666,-2.74167 -0.16666,-4.06667 0,-1.32501 0.025,-2.58751 0.0708,-3.78334 z"
         style="fill:#405c59;fill-rule:nonzero;stroke-width:4.16667"
         id="path68" />
      <path
         d="m 210.571,528.79626 c -0.575,2.49583 -1.05833,4.94583 -1.4625,7.35417 -0.40417,2.40417 -0.75833,4.85 -1.05,7.3125 l 2.11667,-2.3625 c 1.72917,-2.02917 3.4,-4.13333 5.0125,-6.32084 1.60417,-2.18333 3,-4.44583 4.17917,-6.775 1.18334,-2.33334 2.0875,-4.75834 2.72917,-7.29167 0.64167,-2.53751 0.85,-5.22501 0.625,-8.07084 -0.0583,-0.69167 -0.325,-1.22917 -0.80833,-1.61667 -0.48334,-0.37917 -1.075,-0.54167 -1.77084,-0.4875 -1.31666,0.1 -2.50417,0.825 -3.55,2.1625 -1.04583,1.34167 -1.95417,2.93334 -2.71667,4.78334 -0.7625,1.8375 -1.41667,3.79167 -1.95,5.85834 -0.5375,2.075 -0.9875,3.89167 -1.35417,5.45417 z m -10.30417,30.27502 c 0.225,-3.37084 0.45,-6.75834 0.67083,-10.16667 0.21667,-3.41251 0.52917,-6.80001 0.925,-10.19585 0.39584,-3.38333 0.94167,-6.72917 1.62084,-10.02917 0.68333,-3.3125 1.6,-6.54167 2.75,-9.70834 0.575,-1.5875 1.28333,-3.24584 2.125,-4.99167 0.8375,-1.74584 1.82917,-3.34167 2.97917,-4.79167 1.1375,-1.45417 2.425,-2.69167 3.85,-3.71251 1.41667,-1.02083 2.99584,-1.6 4.73334,-1.7375 2.22083,-0.17083 4.17917,0.49167 5.87084,2 1.69583,1.51251 2.64167,3.58751 2.85,6.22918 0.30417,3.8875 -0.12083,7.575 -1.27917,11.05834 -1.15833,3.47917 -2.7375,6.7625 -4.725,9.85417 -1.99584,3.10001 -4.26667,6.00001 -6.81251,8.72084 -2.54583,2.71251 -5.05417,5.28334 -7.51667,7.71668 l -0.87917,0.80833 c -0.19166,2.03334 -0.34583,4.075 -0.4625,6.1125 -0.11666,2.03751 -0.20416,4.07084 -0.25416,6.10001 0.31666,-0.44167 0.7375,-1.03333 1.275,-1.77917 0.53333,-0.74167 1.12916,-1.45 1.77083,-2.13333 0.64167,-0.675 1.31667,-1.27084 2.00834,-1.77917 0.69583,-0.50834 1.32083,-0.78334 1.875,-0.82917 0.34583,-0.0292 0.6625,-0.0125 0.94583,0.0333 1.65,0.56251 2.78334,1.40417 3.39584,2.50417 0.6125,1.1125 1.02917,2.37501 1.24167,3.78751 0.21666,1.40833 0.38333,2.88333 0.50416,4.4125 0.12084,1.525 0.45417,3.04167 0.9875,4.5375 0.20834,-0.0167 0.35,0.0125 0.425,0.075 0.51667,-0.53333 1.15,-1.14583 1.90001,-1.82916 0.75,-0.69167 1.4,-1.05834 1.95833,-1.10001 1.1125,-0.0875 1.70833,0.425 1.8,1.53334 0.0292,0.35 -0.14583,0.82083 -0.51667,1.40417 -0.375,0.59583 -0.85416,1.1875 -1.4375,1.79167 -0.57916,0.60416 -1.22083,1.12916 -1.92083,1.56666 -0.7,0.44167 -1.35834,0.68334 -1.9875,0.73334 -1.24584,0.1 -2.27084,-0.46667 -3.06667,-1.69584 -0.79584,-1.23333 -1.43334,-2.6875 -1.91667,-4.35417 -0.47917,-1.67917 -0.85417,-3.30417 -1.11667,-4.9 -0.26667,-1.58334 -0.525,-2.67917 -0.7875,-3.29167 -1.10417,1.06667 -1.9875,2.2375 -2.65833,3.51667 -0.66667,1.27083 -1.26251,2.57917 -1.78334,3.90833 -0.525,1.33334 -1.06667,2.69167 -1.62083,4.06251 -0.55834,1.375 -1.27917,2.65 -2.16667,3.84167 -0.59167,0.4625 -1.2,0.72083 -1.825,0.77083 -0.69584,0.0583 -1.2875,-0.12917 -1.77084,-0.54167 -0.4875,-0.41666 -0.88333,-0.97916 -1.18333,-1.69166 -0.3,-0.70834 -0.51667,-1.475 -0.65,-2.30834 -0.1375,-0.825 -0.2375,-1.65833 -0.3,-2.4875 -0.15417,-1.87917 -0.17917,-3.77917 -0.0833,-5.70834 0.0875,-1.92917 0.17917,-3.7 0.25834,-5.31667 z"
         style="fill:#405c59;fill-rule:nonzero;stroke-width:4.16667"
         id="path70" />
      <path
         d="m 256.75854,562.80462 c 1.39167,-0.95 2.49167,-2.08334 3.29583,-3.41251 0.80417,-1.31666 1.53334,-2.7 2.19167,-4.15417 0.65417,-1.44166 1.30834,-2.85833 1.97084,-4.2375 0.65833,-1.38333 1.50417,-2.6 2.54167,-3.6625 -0.7875,-0.21667 -1.2125,-0.74584 -1.275,-1.57084 l -0.1625,-0.72916 -2.46251,-0.64167 c -1.1875,0.925 -2.19583,2.05833 -3.04167,3.37917 -0.8375,1.325 -1.50833,2.75833 -2.01666,4.3 -0.50834,1.55 -0.85417,3.125 -1.04167,4.75001 -0.1875,1.625 -0.22083,3.19583 -0.0958,4.725 z m 12.04168,-17.51252 c 0.0167,0.20417 0.0125,0.37917 -0.0125,0.52084 -0.025,0.14583 -0.0667,0.29583 -0.12084,0.42916 0.1375,-0.008 0.25834,-0.0333 0.35417,-0.0792 0.10417,-0.0417 0.225,-0.0708 0.3625,-0.0833 0.975,-0.075 1.725,0.2 2.26667,0.81667 0.5375,0.625 0.85,1.49167 0.9375,2.6 -0.13334,0.92084 -0.34167,2.09167 -0.61667,3.50834 -0.27083,1.425 -0.55417,2.89583 -0.85417,4.42084 -0.3,1.52916 -0.55,3.03333 -0.74583,4.51667 -0.19583,1.47916 -0.25417,2.78333 -0.1625,3.8875 0.0458,0.62917 0.1625,1.2125 0.35,1.75833 1.03333,-0.15 1.97083,-0.64166 2.8125,-1.47916 0.84584,-0.84167 1.65,-1.71667 2.41667,-2.65417 0.7625,-0.9375 1.4625,-1.79167 2.1,-2.57917 0.64167,-0.78334 1.23334,-1.19584 1.79167,-1.24167 1.1125,-0.0875 1.70834,0.425 1.79584,1.5375 0.0333,0.42084 -0.0708,0.875 -0.30417,1.3875 -0.325,0.375 -0.84584,1.08334 -1.56667,2.11667 -0.72083,1.03334 -1.5625,2.11667 -2.525,3.2375 -0.95834,1.12501 -2.05,2.15001 -3.26667,3.08751 -1.22084,0.93333 -2.45834,1.45416 -3.70834,1.55416 -0.97083,0.0708 -1.79583,-0.1625 -2.46667,-0.7 -0.67083,-0.54166 -1.2,-1.25416 -1.57916,-2.13333 -0.38334,-0.87083 -0.67084,-1.79584 -0.85,-2.75834 -0.17917,-0.97083 -0.30417,-1.86666 -0.36667,-2.7 -0.38334,0.45417 -0.88334,0.98334 -1.50417,1.58334 -0.6125,0.6125 -1.28333,1.22083 -2,1.8375 -0.725,0.62083 -1.45,1.14583 -2.18334,1.5875 -0.73333,0.44167 -1.38333,0.68333 -1.9375,0.72917 -1.80417,0.14166 -3.30833,-0.33334 -4.5125,-1.42917 -1.20834,-1.0875 -1.89167,-2.68334 -2.05417,-4.76251 -0.22917,-2.91666 -0.0167,-5.76667 0.64167,-8.54167 0.65416,-2.78333 1.5875,-5.27917 2.8125,-7.51251 1.22083,-2.22916 2.63334,-4.03333 4.24167,-5.41667 1.6,-1.38333 3.20417,-2.1375 4.8,-2.2625 1.52917,-0.125 2.81667,0.30417 3.87501,1.26667 1.05416,0.96667 1.63333,2.14583 1.74583,3.5375 z"
         style="fill:#405c59;fill-rule:nonzero;stroke-width:4.16667"
         id="path72-2" />
      <path
         d="m 297.47107,515.25458 0.52084,-0.0417 c 0.20416,-0.0167 0.42916,-0.0375 0.675,-0.0583 0.24166,-0.0167 0.44166,0.1375 0.6125,0.47083 0.16666,0.34167 0.25833,0.6125 0.275,0.82084 -0.0417,0.35416 -0.12917,0.64166 -0.25,0.85833 -0.71667,1.52917 -1.02084,3.01667 -0.90417,4.475 0.29167,1.025 0.4625,1.81667 0.5,2.37501 0.12917,1.59583 -0.89167,2.475 -3.0375,2.64583 -1.05417,-0.0583 -1.675,-1.29167 -1.86667,-3.725 -0.35,-4.45417 0.80417,-7.05834 3.475,-7.82084 z"
         style="fill:#405c59;fill-rule:nonzero;stroke-width:4.16667"
         id="path74-5" />
      <path
         d="m 350.00445,519.39625 c -0.4,0.2375 -0.775,0.375 -1.12084,0.4 -0.4875,0.0375 -0.87916,-0.0875 -1.18333,-0.375 -0.30417,-0.29583 -0.46667,-0.6125 -0.49584,-0.9625 -0.0458,-0.55417 0.22084,-1.43334 0.79167,-2.62917 0.56667,-1.19583 0.80834,-2.38334 0.7125,-3.57084 -0.20416,-2.6375 -1.33333,-4.48333 -3.37083,-5.55 -2.04167,-1.0625 -4.31251,-1.5 -6.81251,-1.3 -2.64167,0.20833 -5.125,1.05417 -7.45834,2.52917 -2.32917,1.47916 -4.475,3.2875 -6.4375,5.43333 -1.96667,2.15001 -3.73334,4.48751 -5.31667,7.02501 -1.58334,2.5375 -2.90834,4.99584 -3.97917,7.38751 -1.55001,3.4125 -2.75001,7.0375 -3.60417,10.875 -0.85,3.84167 -1.1375,7.46251 -0.87084,10.87085 0.2125,2.7125 0.8125,4.97917 1.79584,6.82917 0.97916,1.84167 2.23333,3.3 3.75417,4.37084 1.5125,1.06666 3.28333,1.77916 5.30417,2.14583 2.02083,0.36667 4.17917,0.45833 6.47084,0.27917 3.05416,-0.24167 6.25417,-0.90834 9.5875,-2.0125 3.33751,-1.09584 6.59168,-2.45834 9.74584,-4.06667 3.15834,-1.61251 6.14584,-3.42084 8.95835,-5.42501 2.81666,-2.00833 5.22083,-4.06667 7.21667,-6.175 0.46666,-0.32084 0.90833,-0.49584 1.325,-0.525 0.9,-0.0708 1.3875,0.30833 1.45417,1.14166 0.05,0.62084 -0.15,1.2 -0.6,1.725 -2.11667,2.40417 -4.77501,4.84584 -7.96668,7.33751 -3.19583,2.4875 -6.63334,4.75 -10.31667,6.78751 -3.68334,2.04166 -7.46251,3.75 -11.34168,5.14167 -3.87083,1.38333 -7.54584,2.21667 -11.01667,2.49167 -3.47501,0.275 -6.49584,-0.1 -9.05418,-1.12501 -2.55833,-1.025 -4.7,-2.45833 -6.42084,-4.3125 -1.71666,-1.85417 -3.025,-3.99584 -3.9125,-6.40417 -0.8875,-2.40834 -1.42917,-4.86667 -1.625,-7.37501 -0.30417,-3.81667 0.0417,-7.82917 1.04583,-12.02501 0.99167,-4.20417 2.45001,-8.3375 4.37084,-12.40417 1.19584,-2.5375 2.72917,-5.23334 4.60417,-8.06668 1.87084,-2.8375 3.9875,-5.4875 6.34167,-7.95 2.36251,-2.45 4.92501,-4.52501 7.69168,-6.20834 2.76666,-1.6875 5.64583,-2.65417 8.63334,-2.8875 2.01666,-0.15417 3.95,-0.025 5.79583,0.3875 1.85001,0.4125 3.49167,1.07083 4.92917,1.97083 1.42917,0.9 2.60417,2.01667 3.50834,3.33751 0.90833,1.32916 1.42917,2.825 1.5625,4.49167 0.0917,1.18333 -0.0667,2.4875 -0.47916,3.91667 -0.40834,1.42916 -1.15001,2.92083 -2.21667,4.475 z"
         style="fill:#405c59;fill-rule:nonzero;stroke-width:4.16667"
         id="path76-0" />
      <path
         d="m 368.03779,554.03794 c 1.39584,-0.94166 2.49584,-2.07917 3.30001,-3.4 0.80416,-1.325 1.52916,-2.70833 2.1875,-4.15834 0.65417,-1.45 1.30833,-2.86667 1.97083,-4.24167 0.65834,-1.38333 1.50834,-2.6 2.54584,-3.6625 -0.7875,-0.2125 -1.2125,-0.74583 -1.27917,-1.57917 l -0.1625,-0.72083 -2.45833,-0.6375 c -1.1875,0.92917 -2.20001,2.05417 -3.04167,3.37917 -0.8375,1.32083 -1.5125,2.75833 -2.01667,4.30833 -0.50834,1.53334 -0.85834,3.12084 -1.04584,4.74168 -0.18333,1.62083 -0.21666,3.19583 -0.0958,4.725 z m 12.04585,-17.50834 c 0.0167,0.20833 0.0125,0.38333 -0.0125,0.525 -0.025,0.14583 -0.0667,0.28333 -0.125,0.43333 0.1375,-0.008 0.25833,-0.0417 0.35833,-0.0792 0.10417,-0.0542 0.22083,-0.0792 0.3625,-0.0875 0.97084,-0.075 1.725,0.19584 2.26667,0.81667 0.5375,0.625 0.84583,1.4875 0.9375,2.6 -0.1375,0.92084 -0.34167,2.0875 -0.61667,3.51251 -0.27083,1.41666 -0.55416,2.89166 -0.85416,4.41667 -0.30417,1.52083 -0.54584,3.02916 -0.74584,4.50833 -0.2,1.49167 -0.25416,2.78334 -0.16666,3.90001 0.0458,0.62083 0.16666,1.2125 0.35,1.75416 1.03333,-0.15416 1.975,-0.65 2.8125,-1.4875 0.85,-0.82916 1.65,-1.71667 2.41667,-2.64583 0.7625,-0.93334 1.46666,-1.79584 2.10416,-2.57917 0.63751,-0.78334 1.23334,-1.2 1.78751,-1.24584 1.1125,-0.0875 1.70833,0.425 1.8,1.54167 0.0333,0.4125 -0.0708,0.875 -0.30834,1.3875 -0.325,0.37084 -0.84583,1.075 -1.5625,2.10834 -0.725,1.0375 -1.5625,2.11667 -2.525,3.24167 -0.9625,1.125 -2.05,2.15417 -3.27084,3.09167 -1.22083,0.93333 -2.45416,1.45 -3.70416,1.54583 -0.97501,0.0833 -1.79167,-0.15417 -2.46667,-0.69167 -0.675,-0.54583 -1.2,-1.25416 -1.57917,-2.13333 -0.3875,-0.87917 -0.67084,-1.79584 -0.85417,-2.7625 -0.17917,-0.9625 -0.3,-1.86667 -0.3625,-2.69584 -0.38333,0.44583 -0.8875,0.97917 -1.50417,1.58334 -0.61666,0.6125 -1.28333,1.225 -2.00417,1.83333 -0.72083,0.61667 -1.45,1.14583 -2.18333,1.5875 -0.73333,0.44584 -1.37917,0.69167 -1.9375,0.73334 -1.80417,0.14166 -3.30834,-0.33334 -4.51251,-1.42501 -1.20833,-1.09583 -1.8875,-2.6875 -2.05416,-4.77083 -0.225,-2.92084 -0.0167,-5.75834 0.64166,-8.54168 0.65417,-2.775 1.5875,-5.28333 2.81667,-7.50417 1.21667,-2.22917 2.63334,-4.0375 4.23751,-5.42084 1.60416,-1.38333 3.20416,-2.14166 4.8,-2.27083 1.52917,-0.11667 2.82084,0.30417 3.875,1.27083 1.05417,0.96667 1.64167,2.1375 1.75,3.52917 z"
         style="fill:#405c59;fill-rule:nonzero;stroke-width:4.16667"
         id="path78-2" />
      <path
         d="m 395.40865,534.16709 c 0.1375,0.83334 0.27083,1.65834 0.40833,2.47917 0.13334,0.84167 0.2375,1.6625 0.3,2.50417 0.0167,0.2 0.0167,0.42917 0,0.675 -0.0167,0.25 -0.0125,0.50834 0.0125,0.7875 0.4125,-0.94166 0.9875,-2.12083 1.7125,-3.5375 0.72501,-1.425 1.51251,-2.79167 2.35001,-4.12084 0.8375,-1.32916 1.69166,-2.475 2.55833,-3.45 0.86667,-0.97917 1.65,-1.5 2.34167,-1.55 1.66667,-0.13333 2.88334,0.22917 3.65,1.075 0.7625,0.84583 1.18334,1.69167 1.24584,2.525 0.2375,2.98334 0.1875,5.94584 -0.14167,8.87084 -0.32917,2.92917 -0.37917,5.85417 -0.14583,8.76251 0.0583,0.76667 0.13333,1.52917 0.23333,2.2875 0.0917,0.76667 0.2375,1.52084 0.4375,2.27084 l 1.76667,1.12083 5.59584,-2.22083 c 0.40416,-0.175 0.675,-0.2625 0.81666,-0.275 1.18334,-0.0917 1.81251,0.4125 1.90417,1.52916 0.0333,0.48334 -0.29166,1.04167 -0.975,1.65 -0.68333,0.6125 -1.49583,1.18334 -2.43333,1.71251 -0.9375,0.52916 -1.9,0.96666 -2.88334,1.325 -0.9875,0.35833 -1.75417,0.55833 -2.3125,0.60416 -1.94584,0.15 -3.70834,-0.72083 -5.29167,-2.62083 -1.58334,-1.90417 -2.51667,-4.69584 -2.8125,-8.38334 -0.1125,-1.45834 -0.15417,-2.88334 -0.125,-4.2875 0.0292,-1.39167 0.075,-2.59167 0.1375,-3.57501 -1.18334,1.84167 -2.22084,3.77501 -3.10834,5.80417 -0.8875,2.02501 -1.74167,4.05001 -2.5625,6.07084 -0.29584,0.65417 -0.5875,1.42917 -0.8625,2.32084 -0.28334,0.9 -0.61667,1.74167 -1.00834,2.54583 -0.39166,0.79584 -0.87916,1.47917 -1.4625,2.05417 -0.58333,0.56667 -1.29167,0.8875 -2.125,0.95 -0.76667,0.0625 -1.40833,-0.12917 -1.93333,-0.57917 -0.525,-0.45 -0.89584,-1.15 -1.1125,-2.11666 -0.0958,-1.24584 -0.0667,-2.59584 0.1,-4.04167 0.16666,-1.44167 0.38333,-2.89584 0.65833,-4.35001 0.26667,-1.45417 0.55833,-2.85417 0.875,-4.2125 0.3125,-1.35417 0.55833,-2.62917 0.74167,-3.825 l -0.008,-0.10834 c 0.0208,-0.62916 0.0125,-1.38333 -0.0167,-2.25417 -0.0333,-0.87083 -0.0292,-1.70833 0.008,-2.51666 0.0417,-0.80834 0.1625,-1.49584 0.3625,-2.07084 0.2,-0.57917 0.6125,-0.8875 1.2375,-0.9375 0.90417,-0.075 1.49584,0.3 1.76667,1.11667 z"
         style="fill:#405c59;fill-rule:nonzero;stroke-width:4.16667"
         id="path80-4" />
      <path
         d="m 442.80869,534.21293 c 0.5625,0.025 1.00833,0.19583 1.35,0.52083 0.34167,0.325 0.525,0.69167 0.55833,1.1125 0.0542,0.62084 -0.34583,1.14167 -1.1875,1.5625 -0.84167,0.42084 -2.00417,0.77084 -3.47917,1.05834 -1.48333,0.29583 -3.19583,0.52916 -5.1375,0.72083 -1.9375,0.1875 -3.99167,0.36667 -6.13751,0.5375 -2.02083,0.15417 -4.01667,0.275 -6.00417,0.36667 -1.98333,0.0833 -3.75,0.11667 -5.28334,0.1 -0.175,-0.4125 -0.26666,-0.675 -0.27916,-0.81667 -0.0292,-0.41667 0.24166,-0.9625 0.82083,-1.6375 1.37084,-0.3125 2.93334,-0.65417 4.6875,-1 1.75834,-0.34583 3.58334,-0.66667 5.48334,-0.9625 1.89584,-0.28333 3.81667,-0.55834 5.75417,-0.8125 1.93751,-0.25834 3.77084,-0.45417 5.50834,-0.59584 0.55834,-0.0375 1.1125,-0.0667 1.675,-0.075 0.55417,-0.008 1.1125,-0.0375 1.67084,-0.0792 z"
         style="fill:#405c59;fill-rule:nonzero;stroke-width:4.16667"
         id="path82-7" />
      <path
         d="m 464.63787,522.52958 c 0.23334,-2.3875 0.40834,-4.8 0.53334,-7.22083 0.12083,-2.42084 0.19583,-4.85834 0.2125,-7.30001 -3.98751,5.275 -7.08334,11.00418 -9.28751,17.18751 -2.20417,6.18751 -3.0625,12.37085 -2.57917,18.55002 0.0583,0.69583 0.1625,1.61667 0.32083,2.75417 0.15834,1.14166 0.3875,2.26667 0.68334,3.35417 0.3,1.09166 0.6875,2.05833 1.175,2.9 0.48333,0.8375 1.07917,1.325 1.79167,1.47917 0.62916,-0.05 1.13333,-0.4875 1.525,-1.325 0.38333,-0.83334 0.7,-1.53751 0.92916,-2.11667 1.68334,-4.39584 2.78751,-9.00834 3.31667,-13.83335 0.525,-4.8375 0.98334,-9.64167 1.37917,-14.42918 z m 0.47917,-27.19168 c 0.025,-0.55417 0.2,-0.99167 0.525,-1.3 0.32917,-0.30001 0.66667,-0.46667 1.01667,-0.49167 0.75833,-0.0625 1.35416,0.37917 1.775,1.32083 l 0.008,0.10417 c 2.42917,-2.00417 4.76251,-3.48334 6.99167,-4.42917 2.23334,-0.94167 4.39167,-1.49167 6.47918,-1.6625 3.125,-0.24584 6,0.3625 8.63334,1.8375 2.63333,1.47083 4.90417,3.45834 6.81667,5.96667 1.90833,2.50417 3.44167,5.35417 4.6,8.54167 1.1625,3.20001 1.87084,6.42918 2.12917,9.69585 0.36667,4.65417 0.0125,9.4875 -1.0625,14.50001 -1.075,5.00833 -2.7375,9.6125 -4.99167,13.80834 -2.25834,4.2 -4.98334,7.71667 -8.18751,10.55418 -3.20417,2.8375 -6.74584,4.4125 -10.63751,4.71667 -0.55833,0.0458 -1.4125,0.0208 -2.57083,-0.0583 -1.1625,-0.0875 -2.34584,-0.25416 -3.55,-0.50416 -1.21667,-0.2625 -2.27501,-0.6625 -3.19584,-1.22084 -0.91667,-0.55417 -1.40834,-1.25417 -1.475,-2.08333 -0.0417,-0.55417 0.0542,-1.09167 0.3,-1.59584 0.23333,-0.50833 0.5625,-0.78333 0.97917,-0.8125 0.625,-0.05 1.25416,0.3875 1.8875,1.31667 l -0.5875,0.46667 c 1.14583,0.4 2.28333,0.65833 3.4125,0.77916 1.125,0.12084 2.175,0.14584 3.15417,0.0667 3.5375,-0.27917 6.65834,-1.6625 9.37084,-4.14584 2.70417,-2.47916 4.92084,-5.55833 6.6625,-9.225 1.73751,-3.66251 2.99167,-7.69584 3.76667,-12.09585 0.77084,-4.3875 0.99167,-8.67084 0.66667,-12.84167 -0.21667,-2.70417 -0.7,-5.33751 -1.4625,-7.90418 -0.75833,-2.5625 -1.80833,-4.8 -3.15417,-6.725 -1.3375,-1.91667 -2.9375,-3.41667 -4.80417,-4.49584 -1.86667,-1.075 -4.05417,-1.5125 -6.55417,-1.31667 -1.6,0.12084 -3.02084,0.42917 -4.27917,0.91667 -1.25417,0.48333 -2.37917,1.075 -3.37084,1.78334 -0.99166,0.70416 -1.9125,1.48333 -2.75,2.3125 -0.84583,0.82916 -1.65833,1.63333 -2.4375,2.39167 0.11667,3.275 0.16667,6.52917 0.1375,9.74167 -0.025,3.21667 -0.0875,6.40001 -0.1875,9.55417 -0.0458,1.26251 -0.1125,3.05417 -0.20833,5.36251 -0.1,2.32083 -0.26667,4.84167 -0.50417,7.58751 -0.2375,2.75 -0.575,5.54167 -1.02084,8.3625 -0.4375,2.83334 -1.05833,5.41251 -1.85,7.75417 -0.8,2.32917 -1.79583,4.27917 -3.00417,5.84168 -1.20416,1.56666 -2.64167,2.40416 -4.30833,2.5375 -1.3875,0.1125 -2.71251,-0.2875 -3.97084,-1.20834 -1.2625,-0.90833 -2.375,-2.15 -3.33334,-3.71667 -0.96666,-1.5625 -1.775,-3.40833 -2.425,-5.52083 -0.65833,-2.12084 -1.07917,-4.32084 -1.25833,-6.61251 -0.32084,-4.09584 -0.0417,-8.26251 0.85,-12.49168 0.89167,-4.23333 2.17917,-8.31667 3.85833,-12.25834 1.68334,-3.9375 3.67917,-7.66667 5.99168,-11.16251 2.30833,-3.50417 4.725,-6.54584 7.25,-9.11667 0.0292,-0.49167 0.0292,-0.9625 -0.008,-1.41667 -0.0333,-0.45 -0.075,-0.92083 -0.1125,-1.40833 z"
         style="fill:#405c59;fill-rule:nonzero;stroke-width:4.16667"
         id="path84-4" />
      <path
         d="m 513.75458,532.50459 c -1.22917,-0.53333 -1.98334,-1.275 -2.27084,-2.23333 -0.81666,2.09583 -1.30417,4.28333 -1.475,6.5625 -0.17083,2.2875 -0.17083,4.50834 0,6.66251 1.10417,-0.225 2.0625,-0.87917 2.8875,-1.95834 0.82084,-1.08333 1.50417,-2.22917 2.03334,-3.46667 0.52917,-1.22916 0.95,-2.375 1.24583,-3.45 0.3,-1.075 0.44584,-1.675 0.4375,-1.81667 l -0.0167,-0.20833 c -0.42917,-0.10833 -0.92084,-0.12083 -1.475,-0.0417 -0.55001,0.0792 -1.00834,0.0667 -1.36667,-0.05 z m 0.33333,-6.42084 c 0.008,0.075 0.05,0.1375 0.125,0.20417 2.94584,-1.6375 6.06667,-3.06667 9.35834,-4.30417 3.29167,-1.2375 6.50417,-2.3625 9.63751,-3.38334 1.32083,-0.1 2.02917,0.40417 2.1125,1.51251 0.05,0.625 -0.25417,1.17916 -0.92083,1.64166 -2.15,1.08334 -4.26251,2.17501 -6.34167,3.27917 -2.08334,1.10834 -4.15834,2.27084 -6.22501,3.47917 0.70417,0.99584 1.10834,2.15417 1.2125,3.47084 0.0792,1.04167 -0.0542,2.39583 -0.41667,4.07084 -0.35416,1.66666 -0.90833,3.3375 -1.64166,5.00833 -0.74584,1.6625 -1.72084,3.22501 -2.93751,4.68751 -1.2125,1.45833 -2.62916,2.55833 -4.25,3.31667 -0.67083,0.33333 -1.40833,0.52916 -2.20417,0.59166 -0.8,0.0667 -1.6125,0.2 -2.43333,0.4 -1.19167,-0.0417 -2.34584,-0.70833 -3.45834,-1.97916 -1.11667,-1.27501 -1.74583,-2.85001 -1.89167,-4.72501 -0.11666,-1.4625 0.0708,-3.27083 0.5625,-5.44584 0.49167,-2.17083 1.15417,-4.27917 1.96667,-6.3375 0.81667,-2.05834 1.70834,-3.84167 2.675,-5.35001 0.9625,-1.5125 1.90001,-2.3 2.79584,-2.37083 0.62917,-0.05 1.17917,0.225 1.64167,0.81667 l 0.625,1.3125 z"
         style="fill:#405c59;fill-rule:nonzero;stroke-width:4.16667"
         id="path86-8" />
      <path
         d="m 533.74209,508.07541 -0.51666,0.0417 c -0.14167,0.008 -0.35,0.025 -0.625,0.0458 -0.27917,0.025 -0.5,-0.12917 -0.66667,-0.47084 -0.16667,-0.33333 -0.25833,-0.60833 -0.275,-0.8125 0.0417,-0.35416 0.12083,-0.64167 0.24583,-0.8625 0.72084,-1.52083 1.025,-3.0125 0.90834,-4.47084 -0.22084,-1.03333 -0.35,-1.79166 -0.39167,-2.275 -0.12917,-1.67083 0.85,-2.57917 2.93333,-2.75 1.05834,0.12917 1.67084,1.375 1.86251,3.73334 0.35,4.44167 -0.80417,7.05417 -3.47501,7.82084 z"
         style="fill:#405c59;fill-rule:nonzero;stroke-width:4.16667"
         id="path88-1" />
      <path
         d="m 588.47964,508.16707 c -1.525,4.59584 -3.14167,9.15001 -4.85001,13.65001 -1.70833,4.50417 -3.725,8.87501 -6.04583,13.10418 1.85416,-1.32917 3.7375,-2.66667 5.6625,-4.00417 1.92083,-1.34167 3.85,-2.57917 5.7875,-3.70833 -0.0333,-0.41667 -0.0875,-0.84584 -0.15,-1.30001 -0.075,-0.44583 -0.125,-0.84166 -0.15416,-1.19166 -0.2125,-2.77917 -0.32917,-5.55001 -0.3375,-8.30834 -0.004,-2.75834 0.0208,-5.50834 0.0875,-8.24168 z m -25.58752,46.57504 c -0.25417,0.29583 -0.55834,0.4625 -0.90417,0.49167 -0.55417,0.0417 -1.05,-0.2125 -1.475,-0.77084 -0.42917,-0.5625 -0.67084,-1.22916 -0.73334,-1.9875 -0.075,-0.975 0.3125,-1.77917 1.17501,-2.4 0.85416,-0.62917 1.6375,-1.35 2.34583,-2.175 l 1.15,-1.35417 c 1.7875,-2.16667 3.42084,-4.53334 4.89167,-7.09167 1.47917,-2.55834 2.6375,-4.72084 3.47917,-6.46251 2.82917,-5.74583 5.19167,-11.70834 7.07917,-17.90418 1.88751,-6.19584 3.71251,-12.30417 5.48334,-18.30835 0.3875,-1.22083 0.76667,-2.67083 1.125,-4.3375 0.35417,-1.66667 0.775,-3.25834 1.24584,-4.7625 0.47916,-1.50834 1.025,-2.79167 1.64166,-3.84584 0.61251,-1.06667 1.40417,-1.6375 2.37917,-1.71667 1.17917,-0.0917 2.13751,0.26667 2.86251,1.0875 0.72916,0.81667 1.15,1.92084 1.25833,3.30834 0.0792,0.975 0.0625,1.93333 -0.0375,2.8875 -0.0958,0.95 -0.19583,1.7375 -0.27917,2.38334 -0.1375,2.73333 -0.29166,5.175 -0.47083,7.325 -0.18333,2.14167 -0.35833,4.37501 -0.525,6.69584 -0.16667,2.32084 -0.3125,4.91667 -0.4375,7.79167 -0.12083,2.87917 -0.15833,6.40834 -0.10833,10.59585 2.20416,-1.28751 4.32917,-2.47084 6.37917,-3.54167 2.05,-1.06667 3.94583,-2.02084 5.7,-2.86251 0.40417,-0.16666 0.675,-0.2625 0.82084,-0.27083 1.17916,-0.0917 1.80833,0.4125 1.9,1.52917 0.0417,0.55417 -0.26667,1.10417 -0.92084,1.64167 -2.38333,1.6625 -4.7,3.34167 -6.94167,5.05417 -2.2375,1.71667 -4.5125,3.46667 -6.82084,5.25833 0.22084,2.77917 0.61667,5.35418 1.18334,7.71251 0.57083,2.37084 1.4625,4.1375 2.675,5.30417 0.30833,0.39584 0.75417,0.69167 1.325,0.88334 0.575,0.20416 1.11667,0.39166 1.61667,0.55416 0.50416,0.17084 0.95416,0.40417 1.3625,0.68334 0.40833,0.28333 0.63333,0.66666 0.67083,1.15 0.0875,1.1125 -0.5625,1.72083 -1.95,1.83333 -0.86667,-0.35416 -1.78333,-0.65 -2.74583,-0.8875 -0.96251,-0.2375 -1.85001,-0.60417 -2.65417,-1.10417 -0.8125,-0.49166 -1.51667,-1.2375 -2.11667,-2.24166 -0.60834,-0.99584 -1.12917,-2.11251 -1.575,-3.33334 -0.45,-1.22083 -0.825,-2.475 -1.13334,-3.74167 -0.30833,-1.25833 -0.57916,-2.45 -0.80416,-3.55 -1.91251,1.475 -3.99167,3.0375 -6.23334,4.67917 -2.25,1.65417 -4.56251,3.35417 -6.93751,5.1125 -2.37917,1.75834 -4.75834,3.55417 -7.12917,5.37917 -2.36667,1.83334 -4.64167,3.59584 -6.81667,5.30834 z"
         style="fill:#405c59;fill-rule:nonzero;stroke-width:4.16667"
         id="path90-8" />
      <path
         d="m 612.30882,527.15876 c 0.025,-2.31251 0.10834,-4.57084 0.25,-6.78334 0.1375,-2.20834 0.36667,-4.44584 0.67917,-6.70834 -2.45833,0.75 -4.20834,1.37917 -5.25,1.88333 -1.04584,0.49584 -1.85001,0.77084 -2.40417,0.81667 -0.83334,0.0667 -1.29167,-0.45417 -1.37917,-1.57083 -0.0833,-1.04167 0.51667,-2.08334 1.8,-3.12917 1.28334,-1.04584 2.79167,-2.02084 4.54167,-2.92501 1.02917,-1.05833 1.82917,-2.01666 2.39167,-2.8625 0.56667,-0.85 1.01667,-1.725 1.36667,-2.625 0.35,-0.9 0.62083,-1.88334 0.81667,-2.95 0.19166,-1.05834 0.44583,-2.34167 0.74583,-3.82917 0.15833,-0.64167 0.3375,-1.69167 0.54167,-3.13751 0.19583,-1.45 0.50416,-2.92083 0.90833,-4.42083 0.40417,-1.50417 0.94583,-2.83334 1.62084,-4.00417 0.67916,-1.175 1.57083,-1.80417 2.6875,-1.89167 1.1125,-0.0833 1.70417,0.3875 1.7875,1.42917 0.0417,0.55833 0.004,1.35 -0.12917,2.36667 -0.12916,1.025 -0.325,2.35416 -0.575,3.97917 -0.25833,1.62916 -0.55417,3.63333 -0.89167,5.99167 -0.3375,2.37083 -0.69166,5.17917 -1.06666,8.42084 0.69166,-0.0458 1.35416,-0.12084 1.975,-0.2 0.62083,-0.0917 1.24583,-0.15834 1.87083,-0.20417 0.7625,-0.0583 1.68334,-0.12917 2.76251,-0.22083 1.075,-0.0792 2.12083,-0.1125 3.1375,-0.0875 1.0125,0.0208 1.87917,0.15 2.59583,0.37083 0.71667,0.22083 1.10417,0.64583 1.15,1.275 0.05,0.62084 -0.52083,1.19167 -1.7,1.70417 -1.18333,0.5125 -2.57917,1.00833 -4.18333,1.48333 -1.60834,0.47917 -3.22501,0.93334 -4.87084,1.37917 -1.64167,0.44584 -2.9,0.875 -3.77917,1.29167 -0.5,3.4 -0.87917,7.00834 -1.13334,10.83751 -0.2625,3.83333 -0.25833,7.4125 0,10.74584 0.0333,0.42083 0.0958,0.97083 0.18334,1.6625 0.0917,0.69167 0.18333,1.4 0.275,2.12917 0.0917,0.73333 0.2125,1.34583 0.35833,1.85833 0.14584,0.51251 0.32084,0.76251 0.52917,0.74584 0.7625,-0.0583 2.25833,-1.3125 4.475,-3.7625 2.21667,-2.43751 4.51667,-5.89168 6.89168,-10.34585 0.31666,-0.37083 0.72083,-0.575 1.20833,-0.61666 0.4875,-0.0375 0.91667,0.0833 1.2875,0.36666 0.375,0.29167 0.57917,0.675 0.61667,1.1625 0.0292,0.35001 -0.1125,0.78334 -0.42084,1.29167 -0.825,1.95 -1.8375,3.99167 -3.03333,6.11667 -1.19584,2.11251 -2.4625,4.03334 -3.79584,5.74168 -1.32917,1.7125 -2.68333,3.15 -4.0625,4.30833 -1.37917,1.15834 -2.69167,1.77917 -3.94167,1.87917 -1.17917,0.0958 -2.16667,-0.24583 -2.96667,-1.025 -0.79167,-0.775 -1.4625,-1.73334 -2.00417,-2.88334 -0.54583,-1.14166 -0.9625,-2.37083 -1.2375,-3.67917 -0.275,-1.29583 -0.45417,-2.47916 -0.5375,-3.52083 -0.10833,-1.38334 -0.1625,-2.74167 -0.1625,-4.07084 0,-1.325 0.0208,-2.59167 0.0708,-3.78333 z"
         style="fill:#405c59;fill-rule:nonzero;stroke-width:4.16667"
         id="path92-1" />
      <path
         d="m 636.37968,525.26292 c 0.025,-2.30833 0.10833,-4.56667 0.25,-6.77917 0.14166,-2.2125 0.3625,-4.45001 0.67916,-6.71251 -2.45833,0.75 -4.20833,1.38334 -5.25417,1.88334 -1.04583,0.5 -1.84583,0.775 -2.4,0.81666 -0.83333,0.0667 -1.29583,-0.45416 -1.37917,-1.57083 -0.0833,-1.04167 0.51667,-2.08333 1.79584,-3.125 1.28333,-1.05 2.79583,-2.025 4.54167,-2.92917 1.03333,-1.05834 1.83333,-2.01667 2.39167,-2.8625 0.5625,-0.85 1.01666,-1.725 1.36666,-2.62084 0.35,-0.90417 0.62084,-1.89167 0.81667,-2.95 0.2,-1.0625 0.44584,-2.34167 0.74584,-3.83334 0.1625,-0.64166 0.34583,-1.69167 0.5375,-3.1375 0.20416,-1.45 0.50833,-2.91667 0.9125,-4.42084 0.4125,-1.5 0.95,-2.82917 1.625,-4.00417 0.67916,-1.17083 1.575,-1.80417 2.68333,-1.89167 1.1125,-0.0833 1.70834,0.38751 1.79167,1.43334 0.0458,0.55833 0,1.34583 -0.12917,2.36667 -0.13333,1.02083 -0.32083,2.35 -0.57916,3.975 -0.25417,1.62917 -0.55417,3.62917 -0.8875,5.99584 -0.34167,2.37083 -0.69584,5.17917 -1.07084,8.42084 0.69167,-0.05 1.35417,-0.125 1.975,-0.20417 0.62084,-0.0917 1.25001,-0.15833 1.87084,-0.20416 0.76667,-0.0583 1.68333,-0.13334 2.7625,-0.21667 1.075,-0.0875 2.125,-0.1125 3.1375,-0.0958 1.0125,0.025 1.88334,0.15416 2.60001,0.375 0.7125,0.225 1.1,0.65 1.15,1.27916 0.0458,0.62084 -0.51667,1.1875 -1.70417,1.7 -1.17917,0.51667 -2.575,1.00834 -4.17917,1.48334 -1.60417,0.47917 -3.22917,0.93333 -4.87084,1.38333 -1.64583,0.44584 -2.90417,0.875 -3.77917,1.29167 -0.50417,3.39584 -0.88333,7.00834 -1.1375,10.83334 -0.2625,3.83334 -0.25833,7.41251 0.008,10.75001 0.0333,0.41667 0.0875,0.96667 0.18334,1.65834 0.0875,0.69583 0.17916,1.4 0.27083,2.13333 0.0917,0.72917 0.20833,1.34167 0.35417,1.85417 0.14583,0.5125 0.32083,0.7625 0.53333,0.74583 0.7625,-0.0625 2.25417,-1.3125 4.47084,-3.75833 2.225,-2.44584 4.51667,-5.89584 6.89584,-10.35001 0.31666,-0.37083 0.72083,-0.575 1.20833,-0.61667 0.48334,-0.0375 0.9125,0.0833 1.2875,0.37084 0.37084,0.2875 0.575,0.67083 0.61667,1.15833 0.0292,0.35 -0.11667,0.78333 -0.425,1.29583 -0.825,1.94167 -1.83334,3.98751 -3.02917,6.10834 -1.19583,2.11667 -2.4625,4.03751 -3.79584,5.74584 -1.33333,1.70834 -2.6875,3.15 -4.06667,4.30834 -1.375,1.15833 -2.6875,1.77917 -3.9375,1.88333 -1.18333,0.0917 -2.16667,-0.25 -2.9625,-1.02917 -0.8,-0.775 -1.46667,-1.73333 -2.0125,-2.875 -0.54584,-1.14583 -0.95417,-2.37083 -1.23334,-3.6875 -0.27916,-1.29584 -0.45833,-2.47917 -0.54166,-3.52084 -0.10834,-1.38333 -0.1625,-2.74583 -0.1625,-4.07083 0,-1.325 0.025,-2.58751 0.075,-3.78334 z"
         style="fill:#405c59;fill-rule:nonzero;stroke-width:4.16667"
         id="path94-2" />
      <path
         d="m 666.17553,494.9254 c 0.39167,0.52916 0.60834,1.03333 0.64584,1.52083 0.0458,0.625 -0.10417,1.17917 -0.45,1.65834 -0.34167,0.4875 -0.79584,0.74583 -1.35,0.79166 -0.55834,0.0417 -1.08334,-0.17916 -1.57501,-0.66666 -0.49166,-0.48334 -0.75833,-0.97084 -0.79166,-1.45834 -0.0458,-0.55417 0.125,-1.05833 0.50833,-1.50417 0.38333,-0.45416 0.85417,-0.69166 1.4125,-0.74166 0.62084,-0.05 1.15834,0.0833 1.6,0.4 z m -5.27917,19.49584 c 0.75,-1.10416 1.4375,-1.6875 2.06667,-1.7375 0.75833,-0.0583 1.19583,0.575 1.3,1.89167 -0.2875,3.45417 -0.575,6.65001 -0.87083,9.61251 -0.2875,2.95417 -0.36667,5.3375 -0.22084,7.14584 0.15417,1.94583 0.6125,2.92083 1.38334,2.92917 0.50417,0.17083 1.06667,0.2375 1.69167,0.18333 1.66666,-0.12917 3.50833,-0.76667 5.5125,-1.9 2.00834,-1.1375 3.67917,-2.52917 5.02084,-4.175 0.40417,-0.17084 0.7125,-0.25834 0.92083,-0.275 0.48334,-0.0417 0.91667,0.1 1.29167,0.42083 0.37083,0.31667 0.57917,0.72083 0.61667,1.20417 0.0292,0.35 -0.1125,0.78333 -0.425,1.29583 -3.31251,3.19167 -6.20834,5.46667 -8.68751,6.82084 -2.47917,1.34583 -4.62084,2.0875 -6.42917,2.22917 -2.08334,0.16667 -3.64584,-0.3875 -4.69167,-1.67917 -1.04167,-1.275 -1.65,-2.95417 -1.8125,-5.04167 -0.3,-3.82084 -0.0458,-7.24584 0.76666,-10.27917 0.80834,-3.03751 1.6625,-5.91668 2.56667,-8.64585 z"
         style="fill:#405c59;fill-rule:nonzero;stroke-width:4.16667"
         id="path96-4" />
      <path
         d="m 678.15888,521.97542 c 0.025,-2.3125 0.1125,-4.57084 0.25416,-6.78334 0.14167,-2.20834 0.37084,-4.44584 0.67917,-6.70834 -2.45834,0.75 -4.20834,1.37917 -5.25417,1.87917 -1.04584,0.5 -1.84584,0.775 -2.4,0.82083 -0.83334,0.0667 -1.29584,-0.45416 -1.37917,-1.57083 -0.0875,-1.04167 0.51667,-2.08334 1.8,-3.12917 1.27917,-1.04584 2.79167,-2.02084 4.5375,-2.925 1.03334,-1.05834 1.83334,-2.01667 2.39584,-2.86667 0.55833,-0.84584 1.02083,-1.725 1.36667,-2.62084 0.34583,-0.9 0.61666,-1.8875 0.8125,-2.95 0.19166,-1.05833 0.44583,-2.34167 0.75417,-3.82917 0.15,-0.64167 0.3375,-1.69167 0.5375,-3.1375 0.20416,-1.45 0.50416,-2.92084 0.90416,-4.42084 0.40417,-1.50417 0.94584,-2.8375 1.62917,-4.00834 0.675,-1.17083 1.57084,-1.8 2.6875,-1.89166 1.1,-0.0792 1.7,0.39166 1.77917,1.43333 0.0458,0.55833 0,1.35 -0.12083,2.36667 -0.12917,1.025 -0.32917,2.35417 -0.5875,3.97917 -0.25,1.62917 -0.54167,3.62917 -0.8875,5.99167 -0.3375,2.37084 -0.6875,5.17917 -1.06667,8.42084 0.69583,-0.0458 1.35,-0.12083 1.97917,-0.20417 0.625,-0.0875 1.24583,-0.15416 1.87083,-0.2 0.7625,-0.0583 1.67917,-0.13333 2.7625,-0.22083 1.07501,-0.0833 2.11667,-0.1125 3.13334,-0.0917 1.0125,0.025 1.88334,0.15417 2.6,0.375 0.71667,0.22084 1.09584,0.64584 1.14584,1.27917 0.05,0.61667 -0.52084,1.1875 -1.69584,1.7 -1.18333,0.5125 -2.57917,1.00834 -4.18333,1.48334 -1.60417,0.475 -3.22501,0.93333 -4.87084,1.37916 -1.64167,0.44584 -2.9,0.87501 -3.775,1.29167 -0.50001,3.39584 -0.88751,7.00834 -1.14167,10.83751 -0.25834,3.83334 -0.25417,7.41251 0.004,10.74584 0.0333,0.41667 0.0958,0.97084 0.17917,1.6625 0.1,0.69167 0.1875,1.40001 0.27917,2.12917 0.0958,0.72917 0.20833,1.34584 0.35416,1.85834 0.15,0.5125 0.32501,0.7625 0.53334,0.74166 0.7625,-0.0583 2.25417,-1.30833 4.475,-3.75833 2.22084,-2.44167 4.51251,-5.89167 6.88751,-10.34584 0.32083,-0.375 0.725,-0.575 1.20833,-0.61667 0.4875,-0.0375 0.91667,0.0792 1.2875,0.36667 0.37084,0.29166 0.58334,0.675 0.62084,1.1625 0.0292,0.35 -0.11667,0.78333 -0.42917,1.29166 -0.825,1.94584 -1.83333,3.99167 -3.02917,6.10834 -1.19583,2.12084 -2.45833,4.04167 -3.79167,5.75001 -1.3375,1.70833 -2.69167,3.15 -4.0625,4.30417 -1.37917,1.15833 -2.6875,1.78333 -3.93751,1.88333 -1.18333,0.0958 -2.17916,-0.24583 -2.975,-1.025 -0.78333,-0.775 -1.45833,-1.73333 -2.00417,-2.88333 -0.54583,-1.14167 -0.95833,-2.37084 -1.23333,-3.67917 -0.27917,-1.3 -0.45833,-2.47917 -0.5375,-3.52084 -0.1125,-1.38333 -0.1625,-2.74584 -0.1625,-4.07084 0,-1.325 0.0208,-2.59166 0.0667,-3.78333 z"
         style="fill:#405c59;fill-rule:nonzero;stroke-width:4.16667"
         id="path98-7" />
      <path
         d="m 706.3464,504.45457 c 0.3625,-0.73333 0.85417,-1.125 1.47917,-1.17083 0.41666,-0.0333 0.8125,0.0917 1.1875,0.37916 0.36666,0.28334 0.575,0.70834 0.62083,1.2625 0.0125,0.1375 -0.0375,0.42084 -0.14167,0.84584 -0.6375,2.6375 -1.15833,5.77084 -1.56666,9.40001 -0.41667,3.6375 -0.4875,7.12083 -0.225,10.45834 0.19166,2.43333 0.6,4.49167 1.22083,6.1875 0.6,-0.39583 1.125,-0.78333 1.58334,-1.17083 l -0.008,-0.1 c 0.55,-1.02917 1.27084,-2.025 2.175,-3.00417 0.9,-0.97917 1.625,-1.97917 2.17501,-3.00417 0.60833,-1.09583 1.24166,-2.45834 1.88333,-4.07917 0.6375,-1.625 1.26667,-3.175 1.88333,-4.65834 0.62084,-1.47917 1.27084,-2.75417 1.95417,-3.82083 0.68334,-1.0625 1.44584,-1.63334 2.27917,-1.70001 0.7625,-0.0625 1.45,0.18334 2.05,0.73334 0.6,0.54583 0.94584,1.30417 1.01667,2.27917 0.0958,1.17916 0.0542,2.68333 -0.1125,4.5125 -0.17083,1.83334 -0.17917,3.75417 -0.025,5.77084 0.0417,0.48333 0.10417,1.10833 0.20417,1.86667 0.0958,0.7625 0.2375,1.52083 0.4375,2.27083 0.20416,0.75417 0.425,1.40834 0.67917,1.94584 0.25416,0.5375 0.55,0.79166 0.9,0.7625 0.48333,-0.0375 1.05416,-0.34167 1.70833,-0.91667 0.65417,-0.57917 1.29583,-0.8875 1.91667,-0.9375 0.35,-0.0292 0.625,0.14167 0.83333,0.50833 0.19584,0.37084 0.30834,0.62084 0.32084,0.7625 0.0458,0.625 -0.15,1.20417 -0.6,1.72501 -0.45,0.52916 -0.97084,1.00416 -1.56667,1.43333 -0.59167,0.42917 -1.19584,0.75417 -1.80417,0.97917 -0.61667,0.22083 -1.09167,0.34583 -1.44167,0.37916 -0.975,0.0708 -1.81667,-0.1875 -2.52917,-0.8 -0.70833,-0.60416 -1.3125,-1.34583 -1.8,-2.22083 -0.48333,-0.8625 -0.86667,-1.7625 -1.15417,-2.6875 -0.27916,-0.91667 -0.5125,-1.61667 -0.6875,-2.09167 -0.52916,1.3 -1.24166,2.62917 -2.15,3.99583 -0.90417,1.37084 -1.89167,2.61251 -2.95417,3.75001 -1.06666,1.125 -2.2125,2.08333 -3.44583,2.8375 -1.23334,0.75833 -2.44167,1.1875 -3.62084,1.28333 -0.69167,0.0542 -1.42083,-0.05 -2.175,-0.30416 -0.75417,-0.25834 -1.45417,-0.72084 -2.10417,-1.4 -0.64167,-0.68334 -1.20833,-1.60834 -1.67917,-2.75834 -0.47916,-1.15417 -0.7875,-2.59167 -0.92083,-4.33334 -0.1375,-1.73333 -0.10834,-3.8 0.0917,-6.19167 0.19583,-2.39167 0.5125,-4.8125 0.94583,-7.25834 0.4375,-2.44167 0.9375,-4.7375 1.50417,-6.875 0.5625,-2.14584 1.12083,-3.75417 1.6625,-4.84584 z"
         style="fill:#405c59;fill-rule:nonzero;stroke-width:4.16667"
         id="path100-8" />
      <path
         d="m 760.05894,482.18789 c -0.008,-0.0667 0.004,-0.12084 0.0333,-0.1625 0.0333,-0.0333 0.05,-0.0917 0.0417,-0.1625 -0.0625,0.0792 -0.0875,0.1875 -0.075,0.325 l 0.008,0.10416 z m -6.16667,40.21669 c -0.0667,0.0792 -0.0875,0.22084 -0.0708,0.43334 0.0583,-0.0792 0.0875,-0.22084 0.0708,-0.43334 z m -16.67501,3.94167 c 1.975,-2.39583 3.84583,-5.05833 5.60833,-7.99167 1.76251,-2.93333 3.42501,-6 4.98751,-9.20001 -0.2125,-0.0542 -0.49584,-0.0708 -0.8375,-0.0417 l -0.10417,0.008 c -3.21667,1.79584 -5.50834,4.22917 -6.87084,7.30417 -1.36667,3.07501 -2.29583,6.38334 -2.78333,9.92084 z m 9.88334,-20.91668 c 0.77916,0.0875 1.45833,0.30833 2.04583,0.68333 l 0.34167,-0.975 c 0.44583,-3.24583 0.9375,-6.50417 1.4875,-9.75834 0.55,-3.25417 1.14584,-6.4875 1.80834,-9.68334 0.20416,-0.92917 0.47083,-2.2375 0.7875,-3.94167 0.325,-1.70833 0.75,-3.3625 1.2875,-4.97917 0.53333,-1.6125 1.24166,-3.04583 2.125,-4.30834 0.87917,-1.25833 1.97917,-1.93333 3.3,-2.0375 1.32084,-0.10833 2.27084,0.23334 2.85834,1.03334 0.5875,0.7875 0.93333,1.87917 1.04583,3.27083 0.0792,1.04167 0.05,2.16667 -0.10833,3.36251 -0.14584,1.20416 -0.32917,2.4 -0.55,3.60833 -0.21667,1.20834 -0.47917,2.37917 -0.77084,3.52084 -0.29583,1.14167 -0.55,2.175 -0.75416,3.1 -0.74167,2.99167 -1.65001,6.11667 -2.72084,9.38751 -1.06667,3.26667 -2.3875,6.52917 -3.94584,9.80001 -0.27916,2.67916 -0.5375,5.33333 -0.7875,7.975 -0.24583,2.64584 -0.475,5.30001 -0.68333,7.97084 l -0.0167,-0.20416 c -0.0167,0.69583 -0.0292,1.39583 -0.0417,2.09583 -0.0167,0.69583 0.004,1.4 0.0542,2.09167 0.14167,1.80833 0.5375,3.27917 1.19167,4.4125 0.7625,-0.0583 1.6375,-0.54583 2.60834,-1.46667 0.975,-0.90833 1.94166,-1.9625 2.89583,-3.15416 0.95417,-1.20001 1.82084,-2.35417 2.61667,-3.45834 0.78333,-1.10834 1.37083,-1.89167 1.75417,-2.34167 0.45417,-0.37917 0.8625,-0.59167 1.20833,-0.6125 1.10834,-0.0917 1.7125,0.42083 1.79584,1.52917 0.0333,0.4125 -0.0667,0.88333 -0.3125,1.39167 -1.07917,1.34166 -2.14167,2.71666 -3.18334,4.125 -1.04583,1.41667 -2.075,2.71667 -3.1,3.9125 -1.025,1.19584 -2.025,2.20834 -3.00834,3.025 -0.9875,0.80834 -2,1.25417 -3.04583,1.33751 -0.97084,0.075 -1.82917,-0.19584 -2.575,-0.79167 -0.75001,-0.60834 -1.37501,-1.47084 -1.87917,-2.57917 -0.50834,-1.12083 -0.9125,-2.45 -1.20834,-3.99584 -0.3,-1.55 -0.51666,-3.22917 -0.6625,-5.03333 -0.05,-0.69167 -0.10416,-1.35417 -0.15416,-1.97917 -0.0458,-0.625 -0.0625,-1.25417 -0.0375,-1.8875 -0.75,1.17916 -1.65834,2.52083 -2.72501,4.04583 -1.075,1.5125 -2.1625,2.9625 -3.275,4.34584 -1.1125,1.37917 -2.22917,2.54583 -3.34584,3.50834 -1.10833,0.96666 -2.11666,1.47916 -3.01666,1.55 l -0.525,0.0417 c -1.22917,-0.53333 -2.07917,-0.91666 -2.55001,-1.1625 -0.47916,-0.24166 -0.825,-0.84166 -1.0375,-1.80833 -0.20416,-2.56667 0.0542,-5.29584 0.77084,-8.18334 0.71666,-2.88334 1.74583,-5.53751 3.09583,-7.95418 1.34584,-2.40833 2.91667,-4.43333 4.71251,-6.08333 1.79166,-1.64167 3.69583,-2.54167 5.70833,-2.70417 z"
         style="fill:#405c59;fill-rule:nonzero;stroke-width:4.16667"
         id="path102-0" />
      <path
         d="m 774.05062,502.7879 c -0.64583,0.6125 -1.28334,1.48334 -1.89167,2.60834 -0.60833,1.1375 -1.14167,2.35417 -1.6,3.64167 -0.45417,1.29166 -0.87917,2.62083 -1.25833,3.975 -0.37917,1.3625 -0.67084,2.60834 -0.86251,3.74167 0.77917,-0.825 1.70417,-2.37084 2.78334,-4.625 0.24167,-0.50834 0.54167,-1.14167 0.9,-1.90417 0.35833,-0.75834 0.675,-1.5875 0.95834,-2.48334 0.27916,-0.89583 0.525,-1.775 0.73333,-2.62917 0.21667,-0.85416 0.29583,-1.62916 0.2375,-2.325 z m 5.34584,3.98334 c -0.575,1.5125 -1.2125,3.02917 -1.89167,4.55 -0.6875,1.52084 -1.48334,2.95 -2.39167,4.28334 -0.90833,1.325 -1.9375,2.50417 -3.075,3.5375 -1.14584,1.0375 -2.4625,1.82084 -3.95834,2.3625 0.11667,1.45417 0.44167,2.87917 0.96667,4.27084 0.52917,1.39167 1.45,2.03334 2.775,1.93334 0.34583,-0.0292 0.70833,-0.0958 1.0875,-0.19167 0.37084,-0.0958 0.7875,-0.34167 1.24584,-0.72917 0.40416,-0.2375 0.98333,-0.66667 1.7375,-1.2875 0.75833,-0.61667 1.57083,-1.33333 2.45417,-2.13333 0.87916,-0.80834 1.71666,-1.67084 2.52083,-2.61251 0.8,-0.92916 1.37084,-1.87083 1.71667,-2.80833 0.175,-0.49584 0.46667,-0.76667 0.88333,-0.8 0.48334,-0.0375 0.95417,0.13333 1.4,0.51666 0.45,0.38334 0.70001,0.85834 0.73751,1.40834 0.0417,0.4875 -0.31251,1.28333 -1.06251,2.39167 -0.75416,1.10416 -1.625,2.2625 -2.6125,3.45833 -0.99583,1.19584 -2.02083,2.32501 -3.09167,3.38334 -1.06666,1.06667 -1.90417,1.75833 -2.50417,2.0875 -0.20833,0.0875 -0.79583,0.44583 -1.75416,1.07917 -0.96667,0.6375 -1.79584,0.98333 -2.48751,1.03333 -1.52916,0.125 -2.87083,-0.0875 -4.03333,-0.625 -1.15834,-0.5375 -2.14584,-1.29583 -2.95417,-2.27917 -0.81667,-0.98333 -1.45,-2.14583 -1.90417,-3.46667 -0.45,-1.325 -0.73333,-2.72083 -0.85,-4.18333 -0.42917,-0.17084 -0.675,-0.5375 -0.71667,-1.09584 -0.0375,-0.48333 0.10417,-0.9125 0.425,-1.29166 -0.0667,-0.82917 -0.1,-1.68751 -0.0958,-2.55834 0,-0.875 0.1,-1.775 0.30833,-2.7 0.30417,-1.49167 0.74167,-3.27084 1.3125,-5.34167 0.57084,-2.075 1.33751,-4.07917 2.30417,-6.00834 0.9625,-1.92084 2.16667,-3.59167 3.59167,-4.99584 1.425,-1.40417 3.10834,-2.18333 5.05417,-2.33333 1.94584,-0.15417 3.32084,0.37916 4.11251,1.60833 0.79583,1.22917 1.2625,2.68334 1.39166,4.34584 0.0792,0.97917 0.0625,1.9375 -0.0333,2.89167 -0.1,0.95 -0.30417,1.71666 -0.60833,2.3 z"
         style="fill:#405c59;fill-rule:nonzero;stroke-width:4.16667"
         id="path104-3" />
      <path
         d="m 792.8298,469.64621 c 0.37083,-0.65833 0.86667,-1.0125 1.4875,-1.0625 1.1125,-0.0833 1.72084,0.52917 1.825,1.85 -0.47083,3.8125 -0.7625,7.62917 -0.88333,11.44584 -0.11667,3.82084 -0.375,7.66667 -0.76667,11.53751 -0.47083,3.81667 -1.03333,7.56251 -1.6875,11.25001 -0.65,3.68334 -1.24583,7.40417 -1.79167,11.14584 -0.28333,0.8625 -0.80833,1.32917 -1.57083,1.38334 -0.41667,0.0333 -0.80834,-0.0542 -1.17084,-0.275 -0.37083,-0.2125 -0.575,-0.6 -0.61666,-1.15417 -0.625,-7.92084 -0.55417,-15.70001 0.2,-23.35002 0.76666,-7.63334 2.425,-15.23334 4.975,-22.77085 z m -2.30833,54.60004 c 0.39166,0.52917 0.60833,1.03334 0.64166,1.51667 0.0542,0.625 -0.0958,1.18333 -0.44166,1.65834 -0.34584,0.4875 -0.79584,0.74583 -1.35417,0.79166 -0.625,0.05 -1.18334,-0.16666 -1.675,-0.65416 -0.49584,-0.48334 -0.75834,-0.97084 -0.8,-1.45834 -0.0417,-0.55417 0.125,-1.05833 0.5125,-1.50833 0.38333,-0.45 0.8875,-0.69584 1.5125,-0.74584 0.625,-0.05 1.16667,0.0833 1.60417,0.4 z"
         style="fill:#405c59;fill-rule:nonzero;stroke-width:4.16667"
         id="path106-9" />
    </g>
    <g
       id="g1174"
       transform="matrix(0.95982469,0,0,0.95982469,6.4922963,13.257271)">
      <g
         id="g388"
         style="clip-rule:evenodd;fill-rule:evenodd;stroke-linecap:square;stroke-miterlimit:2"
         transform="matrix(0.21158524,0,0,0.21158524,161.59916,329.93265)">
        <path
           d="m 137.87511,258.94187 v 60.16672 c -6.83751,3.50417 -13.23751,6.30834 -19.20002,8.42084 -5.96667,2.1125 -11.49167,3.71667 -16.57917,4.81667 -5.091676,1.0875 -9.675013,1.82083 -13.745849,2.1875 -4.070837,0.35833 -7.63334,0.54583 -10.687509,0.54583 -10.620842,0 -20.654183,-1.74583 -30.104191,-5.2375 C 38.10003,326.35443 29.850024,321.22942 22.795852,314.46275 15.737513,307.70025 10.175008,299.40857 6.1041715,289.5919 2.033335,279.77522 0,268.47105 0,255.66687 0,244.03353 1.8875015,233.12935 5.6708379,222.94601 9.4500076,212.76684 14.833345,203.89183 21.812517,196.32932 c 6.983339,-7.55834 15.341679,-13.52501 25.087521,-17.88751 9.741674,-4.3625 20.579183,-6.54584 32.508359,-6.54584 4.50417,0 9.562508,0.475 15.162512,1.41667 5.595841,0.95 11.016671,2.76667 16.250011,5.45417 5.23751,2.69584 9.96251,6.475 14.18335,11.34584 4.21667,4.87501 7.2,11.30834 8.94167,19.30835 -0.72917,0.29167 -1.6,0.62083 -2.61667,0.97917 -1.02083,0.36667 -1.89167,0.69167 -2.61667,0.98333 -1.74583,-2.325 -3.85833,-4.90833 -6.32917,-7.74584 -2.475,-2.8375 -5.52917,-5.4875 -9.16251,-7.9625 -3.6375,-2.47084 -8.0375,-4.57917 -13.20001,-6.32501 -5.162501,-1.74583 -11.233339,-2.62083 -18.212511,-2.62083 -7.712506,0 -15.091679,1.38333 -22.145851,4.15417 -7.054173,2.76666 -13.345844,6.95417 -18.870849,12.56251 -5.529171,5.6125 -9.925008,12.60417 -13.195844,20.97918 -3.275002,8.37501 -4.912504,18.17501 -4.912504,29.38752 0,8.30418 1.125001,16.50002 3.383337,24.58336 2.254168,8.0875 5.783337,15.33751 10.579175,21.74168 4.800003,6.40834 10.912508,11.61668 18.325014,15.62501 7.42084,4.00834 16.29168,6.00834 26.616688,6.00834 6.254172,0 12.40001,-0.76667 18.433345,-2.3 6.03751,-1.53334 11.89168,-3.6125 17.56252,-6.24584 V 272.25022 H 82.462566 v -13.30835 z"
           style="fill:#405c59;fill-rule:nonzero;stroke-width:4.16667"
           id="path2" />
        <path
           d="m 246.73353,263.08771 c -0.4375,-6.98334 -1.80833,-12.68751 -4.11667,-17.12501 -2.3125,-4.43751 -5.09584,-7.96251 -8.34584,-10.58335 -3.25417,-2.61666 -6.60834,-4.39583 -10.07501,-5.34583 -3.47083,-0.94167 -6.575,-1.41667 -9.32084,-1.41667 -3.325,0 -6.79167,0.58333 -10.40417,1.74583 -3.61251,1.16667 -7.04168,3.12917 -10.29168,5.89168 -3.25417,2.7625 -6.07084,6.325 -8.45417,10.6875 -2.38334,4.36251 -3.9375,9.74585 -4.65834,16.14585 z m -65.88339,11.99584 c 0.14167,1.60417 0.325,3.56667 0.54584,5.89167 0.21667,2.32917 0.65,4.83751 1.30833,7.52501 0.65417,2.69584 1.55834,5.52917 2.72501,8.50834 1.1625,2.98334 2.8375,5.85834 5.02083,8.61667 2.75834,3.64167 5.74167,6.43751 8.94168,8.40001 3.2,1.9625 6.21667,3.38334 9.05417,4.25834 2.8375,0.87083 5.34584,1.38333 7.52501,1.525 2.18333,0.14583 3.70833,0.21667 4.58333,0.21667 5.81667,0 10.94168,-0.90417 15.37918,-2.72501 4.43751,-1.81666 8.21668,-3.92917 11.34584,-6.32917 3.12501,-2.4 5.63334,-4.87084 7.52501,-7.41667 1.8875,-2.54167 3.34167,-4.6125 4.3625,-6.21667 0.725,0.29166 1.63751,0.65417 2.72917,1.0875 1.0875,0.4375 1.99584,0.80417 2.72501,1.09167 -0.58334,2.0375 -1.63751,5.02083 -3.16251,8.94584 -1.525,3.92917 -4.10833,7.85417 -7.74167,11.77917 -3.6375,3.92917 -8.47917,7.38334 -14.51251,10.36668 -6.03751,2.975 -13.85001,4.47083 -23.45002,4.47083 -7.41667,0 -14.47501,-1.2375 -21.16252,-3.7125 -6.69167,-2.47083 -12.60001,-6.175 -17.73335,-11.12501 -5.13333,-4.94167 -9.2375,-11.15834 -12.32501,-18.65001 -3.0875,-7.49167 -4.62917,-16.17918 -4.62917,-26.07086 0,-9.6 1.49167,-18.17918 4.47501,-25.74168 2.97917,-7.56251 6.97917,-13.92501 11.99584,-19.08752 5.02084,-5.1625 10.90834,-9.09167 17.67085,-11.78334 6.7625,-2.69167 13.85418,-4.03334 21.27085,-4.03334 7.125,0 13.59584,1.125 19.41668,3.37917 5.81251,2.25834 10.90834,5.34584 15.27085,9.27084 4.3625,3.92917 7.67084,8.25834 9.92917,12.98335 2.25,4.725 3.85,9.34584 4.79584,13.85001 0.94583,4.5125 1.45417,8.62084 1.525,12.32501 0.075,3.70833 0.1125,6.5125 0.1125,8.4 z"
           style="fill:#405c59;fill-rule:nonzero;stroke-width:4.16667"
           id="path4" />
        <rect
           x="287.52521"
           y="176.47514"
           width="19.637514"
           height="154.02095"
           style="fill:#405c59;fill-rule:nonzero;stroke-width:4.16667"
           id="rect6" />
        <path
           d="m 414.9295,243.05019 c -0.88334,-1.02083 -2.0125,-2.37083 -3.40417,-4.04583 -1.39167,-1.67917 -3.15,-3.24167 -5.27501,-4.70001 -2.12916,-1.45833 -4.69167,-2.73333 -7.69167,-3.82917 -3,-1.09166 -6.48334,-1.64166 -10.43751,-1.64166 -5.41667,0 -10.50834,1.27916 -15.26668,3.82917 -4.7625,2.55 -8.75417,6.22917 -11.975,11.04167 -1.61251,2.47917 -2.93334,5.17917 -3.95417,8.09167 -1.02501,2.91667 -1.79584,5.83334 -2.30834,8.74585 -0.51667,2.91666 -0.87917,5.65417 -1.1,8.2 -0.22083,2.55417 -0.325,4.77501 -0.325,6.67084 0,6.99584 0.69583,13.04584 2.08333,18.15001 1.39167,5.10418 3.11251,9.32918 5.16668,12.67918 2.925,4.67084 6.69583,8.38751 11.3125,11.15418 4.61251,2.775 9.99585,4.15833 16.15002,4.15833 3.36667,0 6.44167,-0.475 9.22917,-1.425 2.77917,-0.94583 5.30834,-2.075 7.57917,-3.3875 2.27084,-1.3125 4.24584,-2.69584 5.93334,-4.15417 1.67917,-1.45833 3.10834,-2.77084 4.28334,-3.9375 z m 19.63335,87.44591 H 414.9295 v -12.87085 c -1.31667,1.60001 -2.88334,3.42084 -4.70417,5.45418 -1.825,2.0375 -4.08334,3.925 -6.78334,5.67083 -2.69584,1.74584 -5.90417,3.20001 -9.62084,4.36667 -3.72084,1.15834 -8.13334,1.74167 -13.23751,1.74167 -7.28751,0 -13.88751,-1.38333 -19.79168,-4.14167 -5.90834,-2.7625 -10.97918,-6.6875 -15.20418,-11.78334 -4.22917,-5.08751 -7.51251,-11.19584 -9.84584,-18.32502 -2.32917,-7.125 -3.49584,-14.97501 -3.49584,-23.55835 0,-9.30834 1.35,-17.77918 4.04584,-25.41669 2.69583,-7.6375 6.30833,-14.17917 10.82917,-19.63334 4.51667,-5.45418 9.80418,-9.67085 15.85835,-12.65418 6.05,-2.97917 12.43334,-4.47084 19.13751,-4.47084 4.95834,0 9.25834,0.61667 12.90418,1.85417 3.65,1.23333 6.78334,2.725 9.40834,4.47084 2.62084,1.74583 4.775,3.56667 6.45001,5.45417 1.67916,1.89167 3.025,3.49167 4.05,4.8 v -54.97921 h 19.63335 z"
           style="fill:#405c59;fill-rule:nonzero;stroke-width:4.16667"
           id="path8" />
        <path
           d="m 546.4796,263.08771 c -0.4375,-6.98334 -1.8125,-12.68751 -4.11667,-17.12501 -2.3125,-4.43751 -5.09583,-7.96251 -8.34584,-10.58335 -3.25417,-2.61666 -6.60833,-4.39583 -10.075,-5.34583 -3.47084,-0.94167 -6.57918,-1.41667 -9.32501,-1.41667 -3.32084,0 -6.78751,0.58333 -10.40001,1.74583 -3.6125,1.16667 -7.04167,3.12917 -10.29167,5.89168 -3.25417,2.7625 -6.07084,6.325 -8.45418,10.6875 -2.38333,4.36251 -3.9375,9.74585 -4.65834,16.14585 z m -65.88755,11.99584 c 0.14167,1.60417 0.32917,3.56667 0.54583,5.89167 0.22084,2.32917 0.65417,4.83751 1.31251,7.52501 0.65416,2.69584 1.5625,5.52917 2.725,8.50834 1.1625,2.98334 2.8375,5.85834 5.01667,8.61667 2.7625,3.64167 5.74584,6.43751 8.94584,8.40001 3.19584,1.9625 6.22084,3.38334 9.05417,4.25834 2.83751,0.87083 5.34584,1.38333 7.52501,1.525 2.17917,0.14583 3.7125,0.21667 4.58334,0.21667 5.8125,0 10.94167,-0.90417 15.37918,-2.72501 4.43333,-1.81666 8.21667,-3.92917 11.34584,-6.32917 3.125,-2.4 5.63334,-4.87084 7.525,-7.41667 1.88751,-2.54167 3.34167,-4.6125 4.36251,-6.21667 0.725,0.29166 1.6375,0.65417 2.725,1.0875 1.09167,0.4375 2,0.80417 2.72917,1.09167 -0.58334,2.0375 -1.6375,5.02083 -3.1625,8.94584 -1.52501,3.92917 -4.10834,7.85417 -7.74168,11.77917 -3.6375,3.92917 -8.47917,7.38334 -14.51251,10.36668 -6.03334,2.975 -13.85001,4.47083 -23.45002,4.47083 -7.41667,0 -14.47084,-1.2375 -21.16251,-3.7125 -6.68751,-2.47083 -12.60001,-6.175 -17.73335,-11.12501 -5.12917,-4.94167 -9.24168,-11.15834 -12.32501,-18.65001 -3.0875,-7.49167 -4.62917,-16.17918 -4.62917,-26.07086 0,-9.6 1.4875,-18.17918 4.47083,-25.74168 2.98334,-7.56251 6.98334,-13.92501 12.00001,-19.08752 5.01667,-5.1625 10.90835,-9.09167 17.67085,-11.78334 6.76251,-2.69167 13.85001,-4.03334 21.27085,-4.03334 7.12501,0 13.59585,1.125 19.41252,3.37917 5.81667,2.25834 10.91251,5.34584 15.27501,9.27084 4.3625,3.92917 7.67084,8.25834 9.92917,12.98335 2.25001,4.725 3.85001,9.34584 4.79584,13.85001 0.94584,4.5125 1.45417,8.62084 1.525,12.32501 0.075,3.70833 0.1125,6.5125 0.1125,8.4 z"
           style="fill:#405c59;fill-rule:nonzero;stroke-width:4.16667"
           id="path10" />
        <path
           d="M 607.34215,330.4961 H 587.2713 V 219.45434 h 20.07085 v 15.27085 c 0.87084,-1.30834 2.10834,-2.97917 3.70834,-5.01667 1.6,-2.03334 3.5625,-4.00001 5.89167,-5.89167 2.325,-1.88751 5.05417,-3.52501 8.18334,-4.90834 3.125,-1.37917 6.65001,-2.07084 10.57918,-2.07084 2.90416,0 5.15833,0.25417 6.7625,0.7625 1.6,0.5125 3.19584,1.12917 4.79584,1.85417 v 17.88752 c -1.74167,-0.725 -4.07084,-1.67084 -6.97917,-2.83334 -2.91251,-1.1625 -6.25418,-1.74583 -10.03751,-1.74583 -3.34167,0 -6.32084,0.54583 -8.94168,1.6375 -2.61667,1.0875 -4.875,2.3625 -6.7625,3.81667 -1.89167,1.45417 -3.42084,2.94583 -4.58334,4.47083 -1.1625,1.52917 -2.0375,2.65417 -2.61667,3.38334 z"
           style="fill:#405c59;fill-rule:nonzero;stroke-width:4.16667"
           id="path12" />
        <path
           d="M 6.6250053,370.75863 H 24.275019 v 2.86667 H 10.029175 v 8.12501 h 13.279177 v 2.86666 H 10.029175 v 8.83751 h 14.354178 v 2.8625 H 6.6250053 Z"
           style="fill:#405c59;fill-rule:nonzero;stroke-width:4.16667"
           id="path14-3" />
        <path
           d="M 42.1167,396.31698 H 38.250031 L 29.22919,370.75863 h 3.687503 l 7.304173,22.15835 h 0.07083 l 7.370839,-22.15835 h 3.545836 z"
           style="fill:#405c59;fill-rule:nonzero;stroke-width:4.16667"
           id="path16-9" />
        <path
           d="m 57.487546,370.75863 h 17.645847 v 2.86667 H 60.887549 v 8.12501 h 13.279177 v 2.86666 H 60.887549 v 8.83751 h 14.354178 v 2.8625 H 57.487546 Z"
           style="fill:#405c59;fill-rule:nonzero;stroke-width:4.16667"
           id="path18-0" />
        <path
           d="m 93.408408,382.53364 c 3.183336,0 5.904171,-0.82083 5.904171,-4.54167 0,-2.50834 -1.358334,-4.36667 -4.545837,-4.36667 h -8.44584 v 8.90834 z M 82.916733,370.75863 h 12.029176 c 4.795837,0 7.766671,2.6125 7.766671,6.69584 0,3.075 -1.35833,5.61667 -4.437501,6.475 v 0.075 c 2.970831,0.57084 3.579171,2.75417 3.829171,5.26251 0.21667,2.50417 0.0708,5.29584 1.50417,7.05 h -3.791673 c -0.966668,-1.0375 -0.433334,-3.79167 -0.933335,-6.3 -0.358333,-2.50417 -0.966667,-4.61667 -4.258336,-4.61667 h -8.304174 v 10.91667 h -3.404169 z"
           style="fill:#405c59;fill-rule:nonzero;stroke-width:4.16667"
           id="path20-7" />
        <path
           d="m 120.23343,385.86698 v 10.45 h -3.4 v -10.45 l -9.87918,-15.10835 h 4.04584 l 7.65834,12.17084 7.47917,-12.17084 h 3.87084 z"
           style="fill:#405c59;fill-rule:nonzero;stroke-width:4.16667"
           id="path22-6" />
        <path
           d="m 142.22928,373.6253 h -8.52084 v -2.86667 h 20.43752 v 2.86667 h -8.51668 v 22.69168 h -3.4 z"
           style="fill:#405c59;fill-rule:nonzero;stroke-width:4.16667"
           id="path24" />
        <path
           d="m 160.53346,370.75863 h 3.40417 v 10.99168 h 13.45835 v -10.99168 h 3.4 v 25.55835 h -3.4 v -11.70001 h -13.45835 v 11.70001 h -3.40417 z"
           style="fill:#405c59;fill-rule:nonzero;stroke-width:4.16667"
           id="path26" />
        <rect
           x="190.07932"
           y="370.75864"
           width="3.4041693"
           height="25.558353"
           style="fill:#405c59;fill-rule:nonzero;stroke-width:4.16667"
           id="rect28" />
        <path
           d="m 202.73766,370.75863 h 3.61667 l 13.45835,20.72502 h 0.0708 v -20.72502 h 3.225 v 25.55835 h -3.725 L 206.0335,375.80863 h -0.0708 v 20.50835 h -3.225 z"
           style="fill:#405c59;fill-rule:nonzero;stroke-width:4.16667"
           id="path30" />
        <path
           d="m 251.29603,393.12948 c -1.97083,2.6875 -5.19583,3.8 -8.2,3.8 -7.62501,0 -12.17085,-6.23333 -12.17085,-12.89167 0,-7.44168 4.07917,-13.88335 12.17085,-13.88335 5.5875,0 10.02084,2.50417 10.99167,8.47918 h -3.40417 c -0.67916,-3.86667 -3.79167,-5.62084 -7.5875,-5.62084 -6.19584,0 -8.77084,5.37084 -8.77084,10.84584 0,5.3375 3.07917,10.20418 8.77084,10.20418 5.2625,0 8.40834,-3.68751 8.2,-8.34168 h -8.1625 v -2.8625 h 11.20001 v 13.45834 h -2.14584 z"
           style="fill:#405c59;fill-rule:nonzero;stroke-width:4.16667"
           id="path32" />
        <rect
           x="276.56271"
           y="370.75864"
           width="3.4000027"
           height="25.558353"
           style="fill:#405c59;fill-rule:nonzero;stroke-width:4.16667"
           id="rect34" />
        <path
           d="m 289.22523,370.75863 h 3.61667 l 13.45835,20.72502 h 0.0708 v -20.72502 h 3.225 v 25.55835 h -3.725 l -13.35001,-20.50835 h -0.0708 v 20.50835 h -3.225 z"
           style="fill:#405c59;fill-rule:nonzero;stroke-width:4.16667"
           id="path36" />
        <path
           d="m 350.15028,378.45447 c -0.71667,-3.6125 -3.6125,-5.44167 -7.15834,-5.44167 -6.0875,0 -8.66251,5.0125 -8.66251,10.35001 0,5.83333 2.57501,10.70001 8.70001,10.70001 4.47084,0 7.05417,-3.15001 7.37501,-7.37084 h 3.39583 c -0.64166,6.37083 -4.6125,10.2375 -11.05834,10.2375 -7.94584,0 -11.81251,-5.875 -11.81251,-13.32084 0,-7.40834 4.225,-13.45418 12.10001,-13.45418 5.32917,0 9.73334,2.85834 10.52501,8.30001 z"
           style="fill:#405c59;fill-rule:nonzero;stroke-width:4.16667"
           id="path38" />
        <path
           d="m 372.39613,394.06282 c 6.22501,0 8.84167,-5.37084 8.84167,-10.52085 0,-5.15833 -2.61666,-10.52917 -8.84167,-10.52917 -6.22917,0 -8.84167,5.37084 -8.84167,10.52917 0,5.15001 2.6125,10.52085 8.84167,10.52085 z m 0,-23.90836 c 8.12501,0 12.24168,6.44167 12.24168,13.38751 0,6.94168 -4.11667,13.38751 -12.24168,13.38751 -8.12501,0 -12.24168,-6.44583 -12.24168,-13.38751 0,-6.94584 4.11667,-13.38751 12.24168,-13.38751 z"
           style="fill:#405c59;fill-rule:nonzero;stroke-width:4.16667"
           id="path40" />
        <path
           d="m 392.30448,370.75863 h 3.62084 l 13.45417,20.72502 h 0.075 v -20.72502 h 3.22084 v 25.55835 h -3.725 l -13.35001,-20.50835 h -0.0708 v 20.50835 h -3.225 z"
           style="fill:#405c59;fill-rule:nonzero;stroke-width:4.16667"
           id="path42" />
        <path
           d="m 436.52952,378.24197 c -0.39584,-3.65417 -2.82917,-5.22917 -6.33334,-5.22917 -2.86667,0 -5.72501,1.0375 -5.72501,4.36667 0,3.15 4.07917,3.61667 8.19168,4.55 4.08333,0.92917 8.1625,2.35834 8.1625,7.37501 0,5.4375 -5.33333,7.625 -9.98334,7.625 -5.72917,0 -10.56251,-2.79166 -10.56251,-9.025 h 3.22084 c 0,4.29583 3.58333,6.15834 7.44584,6.15834 3.07917,0 6.47917,-0.96667 6.47917,-4.65418 0,-3.50833 -4.08334,-4.11667 -8.15834,-5.0125 -4.08334,-0.89583 -8.20001,-2.075 -8.20001,-6.7625 0,-5.19168 4.62084,-7.47918 9.27084,-7.47918 5.22918,0 9.20001,2.46667 9.41668,8.08751 z"
           style="fill:#405c59;fill-rule:nonzero;stroke-width:4.16667"
           id="path44" />
        <path
           d="m 454.30036,373.6253 h -8.51667 v -2.86667 h 20.43752 v 2.86667 h -8.52084 v 22.69168 h -3.40001 z"
           style="fill:#405c59;fill-rule:nonzero;stroke-width:4.16667"
           id="path46" />
        <path
           d="m 483.10039,382.53364 c 3.18333,0 5.90417,-0.82083 5.90417,-4.54167 0,-2.50834 -1.35834,-4.36667 -4.54584,-4.36667 h -8.44584 v 8.90834 z m -10.49168,-11.77501 h 12.02918 c 4.79583,0 7.76667,2.6125 7.76667,6.69584 0,3.075 -1.35833,5.61667 -4.4375,6.475 v 0.075 c 2.97083,0.57084 3.57917,2.75417 3.82917,5.26251 0.21666,2.50417 0.0708,5.29584 1.50416,7.05 h -3.79583 c -0.9625,-1.0375 -0.42917,-3.79167 -0.92917,-6.3 -0.35833,-2.50417 -0.96667,-4.61667 -4.25834,-4.61667 h -8.30417 v 10.91667 h -3.40417 z"
           style="fill:#405c59;fill-rule:nonzero;stroke-width:4.16667"
           id="path48" />
        <path
           d="m 521.08792,387.07948 c 0,6.44583 -3.68751,9.85 -10.05834,9.85 -6.58334,0 -10.48751,-3.04583 -10.48751,-9.85 v -16.32085 h 3.40417 v 16.32085 c 0,4.5125 2.575,6.98334 7.08334,6.98334 4.29583,0 6.6625,-2.47084 6.6625,-6.98334 v -16.32085 h 3.39584 z"
           style="fill:#405c59;fill-rule:nonzero;stroke-width:4.16667"
           id="path50" />
        <path
           d="m 548.05877,378.45447 c -0.71667,-3.6125 -3.6125,-5.44167 -7.1625,-5.44167 -6.08751,0 -8.65834,5.0125 -8.65834,10.35001 0,5.83333 2.57083,10.70001 8.7,10.70001 4.46667,0 7.05001,-3.15001 7.37084,-7.37084 h 3.4 c -0.64583,6.37083 -4.61667,10.2375 -11.0625,10.2375 -7.94584,0 -11.81251,-5.875 -11.81251,-13.32084 0,-7.40834 4.225,-13.45418 12.10417,-13.45418 5.32917,0 9.73334,2.85834 10.52084,8.30001 z"
           style="fill:#405c59;fill-rule:nonzero;stroke-width:4.16667"
           id="path52" />
        <path
           d="m 565.28379,373.6253 h -8.51251 v -2.86667 h 20.43752 v 2.86667 h -8.52085 v 22.69168 h -3.40416 z"
           style="fill:#405c59;fill-rule:nonzero;stroke-width:4.16667"
           id="path54" />
        <rect
           x="583.73798"
           y="370.75864"
           width="3.4041693"
           height="25.558353"
           style="fill:#405c59;fill-rule:nonzero;stroke-width:4.16667"
           id="rect56" />
        <path
           d="m 607.24632,394.06282 c 6.225,0 8.84167,-5.37084 8.84167,-10.52085 0,-5.15833 -2.61667,-10.52917 -8.84167,-10.52917 -6.22917,0 -8.84167,5.37084 -8.84167,10.52917 0,5.15001 2.6125,10.52085 8.84167,10.52085 z m 0,-23.90836 c 8.12501,0 12.23751,6.44167 12.23751,13.38751 0,6.94168 -4.1125,13.38751 -12.23751,13.38751 -8.12501,0 -12.24584,-6.44583 -12.24584,-13.38751 0,-6.94584 4.12083,-13.38751 12.24584,-13.38751 z"
           style="fill:#405c59;fill-rule:nonzero;stroke-width:4.16667"
           id="path58" />
        <path
           d="m 627.15884,370.75863 h 3.61666 l 13.45835,20.72502 h 0.0708 v -20.72502 h 3.225 v 25.55835 h -3.725 l -13.35001,-20.50835 h -0.0708 v 20.50835 h -3.225 z"
           style="fill:#405c59;fill-rule:nonzero;stroke-width:4.16667"
           id="path60" />
        <path
           d="M 13.887511,432.25451 H 639.75885"
           style="fill:none;stroke:#405c59;stroke-width:18.2917px"
           id="path62" />
      </g>
      <path
         d="M 165.2252,358.96481 178.51805,345.9382 H 300.1347 v 13.02661 z"
         style="clip-rule:evenodd;fill:#e41837;fill-rule:nonzero;stroke-width:0.881604;stroke-linecap:square;stroke-miterlimit:2"
         id="path108-1" />
      <path
         d="M 300.1347,329.98554 H 195.00144 l -13.0266,12.89437 H 300.1347 Z"
         style="clip-rule:evenodd;fill:#e41837;fill-rule:nonzero;stroke-width:0.881604;stroke-linecap:square;stroke-miterlimit:2"
         id="path110-5" />
    </g>
  </g>
</svg>
