<?xml version="1.0" standalone="no"?>
<!DOCTYPE svg PUBLIC "-//W3C//DTD SVG 20010904//EN"
 "http://www.w3.org/TR/2001/REC-SVG-20010904/DTD/svg10.dtd">
<svg version="1.0" xmlns="http://www.w3.org/2000/svg"
 width="260.000000pt" height="260.000000pt" viewBox="0 0 260.000000 260.000000"
 preserveAspectRatio="xMidYMid meet">
<metadata>
Created by potrace 1.14, written by Peter Selinger 2001-2017
</metadata>
<g transform="translate(0.000000,260.000000) scale(0.100000,-0.100000)"
fill="#000000" stroke="none">
<path d="M1755 2082 c-41 -4 -73 -21 -115 -60 -19 -18 -57 -47 -85 -63 -27
-17 -68 -55 -90 -84 -22 -29 -59 -66 -82 -81 -23 -16 -59 -51 -80 -78 -20 -26
-61 -66 -90 -87 -29 -22 -58 -49 -64 -62 -15 -26 -20 -135 -8 -143 5 -3 7 -9
4 -14 -3 -5 -1 -11 5 -15 6 -4 7 -12 3 -18 -4 -7 -8 -21 -8 -32 0 -11 -7 -20
-15 -20 -8 -1 -14 -7 -12 -14 1 -7 -2 -9 -8 -6 -8 5 -5 13 7 27 9 10 18 30 19
44 1 22 -9 25 -12 3 -1 -5 -3 -11 -4 -14 -1 -3 -3 -11 -4 -17 -1 -7 -7 -12
-14 -11 -7 2 -11 0 -11 -5 1 -4 1 -16 -1 -27 l-1 -20 -9 20 -9 20 -1 -20 c-2
-11 -2 -24 -1 -28 1 -5 -3 -6 -9 -2 -6 3 -8 10 -6 14 3 4 -1 8 -9 8 -8 0 -14
-3 -13 -6 2 -19 -4 -24 -12 -11 -8 12 -10 12 -10 -5 0 -17 -2 -17 -10 -5 -8
12 -10 12 -10 1 0 -8 -3 -11 -7 -8 -3 4 -13 1 -21 -6 -13 -10 -14 -9 -8 1 7
11 4 12 -11 3 -11 -6 -23 -7 -27 -4 -3 3 -6 2 -6 -3 0 -5 -9 -10 -20 -11 -11
-1 -34 -13 -52 -26 -18 -14 -61 -39 -95 -56 -46 -23 -73 -45 -102 -84 -22 -30
-62 -70 -89 -90 -28 -19 -64 -56 -81 -80 -17 -25 -48 -56 -68 -68 -51 -32 -80
-64 -110 -124 -14 -27 -31 -53 -37 -57 -6 -4 -7 -8 -2 -8 6 0 2 -6 -7 -12 -21
-16 -41 -68 -26 -68 6 0 8 -4 5 -9 -7 -11 18 -33 27 -24 4 3 7 2 7 -4 0 -5 6
-10 13 -11 37 -5 2310 -6 2318 -1 5 3 8 324 7 784 l-3 779 -405 1 c-223 0
-418 -1 -435 -3z"/>
</g>
</svg>
